<svg viewBox="0 0 789.3333740234375 400" xmlns="http://www.w3.org/2000/svg"><g><g><g><g><g><line x1="40" y1="370.00000000000045" x2="35" y2="370.00000000000045" style="visibility: inherit;" fill="rgb(0, 0, 0)" stroke="rgb(204, 204, 204)" stroke-width="1px"></line><line x1="40" y1="328.0000000000004" x2="35" y2="328.0000000000004" style="visibility: inherit;" fill="rgb(0, 0, 0)" stroke="rgb(204, 204, 204)" stroke-width="1px"></line><line x1="40" y1="286.00000000000034" x2="35" y2="286.00000000000034" style="visibility: inherit;" fill="rgb(0, 0, 0)" stroke="rgb(204, 204, 204)" stroke-width="1px"></line><line x1="40" y1="244.00000000000028" x2="35" y2="244.00000000000028" style="visibility: inherit;" fill="rgb(0, 0, 0)" stroke="rgb(204, 204, 204)" stroke-width="1px"></line><line x1="40" y1="202.0000000000002" x2="35" y2="202.0000000000002" style="visibility: inherit;" fill="rgb(0, 0, 0)" stroke="rgb(204, 204, 204)" stroke-width="1px"></line><line x1="40" y1="160.00000000000017" x2="35" y2="160.00000000000017" style="visibility: inherit;" fill="rgb(0, 0, 0)" stroke="rgb(204, 204, 204)" stroke-width="1px"></line><line x1="40" y1="118.00000000000011" x2="35" y2="118.00000000000011" style="visibility: inherit;" fill="rgb(0, 0, 0)" stroke="rgb(204, 204, 204)" stroke-width="1px"></line><line x1="40" y1="76.00000000000006" x2="35" y2="76.00000000000006" style="visibility: inherit;" fill="rgb(0, 0, 0)" stroke="rgb(204, 204, 204)" stroke-width="1px"></line><line x1="40" y1="34" x2="35" y2="34" style="visibility: inherit;" fill="rgb(0, 0, 0)" stroke="rgb(204, 204, 204)" stroke-width="1px"></line></g><g transform="translate(30, 0)"><text x="0" y="370.00000000000045" dx="0em" dy="0.3em" style="text-anchor: end; visibility: inherit; font-family: &quot;Helvetica Neue&quot;, sans-serif; font-size: 12px; font-weight: 200;" fill="rgb(50, 49, 63)" stroke="none" stroke-width="1px">0</text><text x="0" y="328.0000000000004" dx="0em" dy="0.3em" style="text-anchor: end; visibility: inherit; font-family: &quot;Helvetica Neue&quot;, sans-serif; font-size: 12px; font-weight: 200;" fill="rgb(50, 49, 63)" stroke="none" stroke-width="1px">0.1</text><text x="0" y="286.00000000000034" dx="0em" dy="0.3em" style="text-anchor: end; visibility: inherit; font-family: &quot;Helvetica Neue&quot;, sans-serif; font-size: 12px; font-weight: 200;" fill="rgb(50, 49, 63)" stroke="none" stroke-width="1px">0.2</text><text x="0" y="244.00000000000028" dx="0em" dy="0.3em" style="text-anchor: end; visibility: inherit; font-family: &quot;Helvetica Neue&quot;, sans-serif; font-size: 12px; font-weight: 200;" fill="rgb(50, 49, 63)" stroke="none" stroke-width="1px">0.3</text><text x="0" y="202.0000000000002" dx="0em" dy="0.3em" style="text-anchor: end; visibility: inherit; font-family: &quot;Helvetica Neue&quot;, sans-serif; font-size: 12px; font-weight: 200;" fill="rgb(50, 49, 63)" stroke="none" stroke-width="1px">0.4</text><text x="0" y="160.00000000000017" dx="0em" dy="0.3em" style="text-anchor: end; visibility: inherit; font-family: &quot;Helvetica Neue&quot;, sans-serif; font-size: 12px; font-weight: 200;" fill="rgb(50, 49, 63)" stroke="none" stroke-width="1px">0.5</text><text x="0" y="118.00000000000011" dx="0em" dy="0.3em" style="text-anchor: end; visibility: inherit; font-family: &quot;Helvetica Neue&quot;, sans-serif; font-size: 12px; font-weight: 200;" fill="rgb(50, 49, 63)" stroke="none" stroke-width="1px">0.6</text><text x="0" y="76.00000000000006" dx="0em" dy="0.3em" style="text-anchor: end; visibility: inherit; font-family: &quot;Helvetica Neue&quot;, sans-serif; font-size: 12px; font-weight: 200;" fill="rgb(50, 49, 63)" stroke="none" stroke-width="1px">0.7</text><text x="0" y="34" dx="0em" dy="0.3em" style="text-anchor: end; visibility: inherit; font-family: &quot;Helvetica Neue&quot;, sans-serif; font-size: 12px; font-weight: 200;" fill="rgb(50, 49, 63)" stroke="none" stroke-width="1px">0.8</text></g><line x1="40" y1="0" x2="40" y2="378" fill="rgb(0, 0, 0)" stroke="rgb(204, 204, 204)" stroke-width="1px"></line></g></g><g transform="translate(40, 0)" clip-path="url(#clip_0)"><clipPath id="clip_0"><rect width="749" height="378"></rect></clipPath><g><g><g><line x1="43.64099999999995" y1="0" x2="43.64099999999995" y2="378" fill="rgb(0, 0, 0)" stroke="rgb(60, 60, 60)" stroke-width="1px" opacity="0.25"></line><line x1="101.28199999999987" y1="0" x2="101.28199999999987" y2="378" fill="rgb(0, 0, 0)" stroke="rgb(60, 60, 60)" stroke-width="1px" opacity="0.25"></line><line x1="158.9229999999998" y1="0" x2="158.9229999999998" y2="378" fill="rgb(0, 0, 0)" stroke="rgb(60, 60, 60)" stroke-width="1px" opacity="0.25"></line><line x1="216.56399999999974" y1="0" x2="216.56399999999974" y2="378" fill="rgb(0, 0, 0)" stroke="rgb(60, 60, 60)" stroke-width="1px" opacity="0.25"></line><line x1="274.2049999999997" y1="0" x2="274.2049999999997" y2="378" fill="rgb(0, 0, 0)" stroke="rgb(60, 60, 60)" stroke-width="1px" opacity="0.25"></line><line x1="331.8459999999996" y1="0" x2="331.8459999999996" y2="378" fill="rgb(0, 0, 0)" stroke="rgb(60, 60, 60)" stroke-width="1px" opacity="0.25"></line><line x1="389.4869999999995" y1="0" x2="389.4869999999995" y2="378" fill="rgb(0, 0, 0)" stroke="rgb(60, 60, 60)" stroke-width="1px" opacity="0.25"></line><line x1="447.1279999999995" y1="0" x2="447.1279999999995" y2="378" fill="rgb(0, 0, 0)" stroke="rgb(60, 60, 60)" stroke-width="1px" opacity="0.25"></line><line x1="504.76899999999944" y1="0" x2="504.76899999999944" y2="378" fill="rgb(0, 0, 0)" stroke="rgb(60, 60, 60)" stroke-width="1px" opacity="0.25"></line><line x1="562.4099999999993" y1="0" x2="562.4099999999993" y2="378" fill="rgb(0, 0, 0)" stroke="rgb(60, 60, 60)" stroke-width="1px" opacity="0.25"></line><line x1="620.0509999999992" y1="0" x2="620.0509999999992" y2="378" fill="rgb(0, 0, 0)" stroke="rgb(60, 60, 60)" stroke-width="1px" opacity="0.25"></line><line x1="677.6919999999992" y1="0" x2="677.6919999999992" y2="378" fill="rgb(0, 0, 0)" stroke="rgb(60, 60, 60)" stroke-width="1px" opacity="0.25"></line><line x1="735.3329999999991" y1="0" x2="735.3329999999991" y2="378" fill="rgb(0, 0, 0)" stroke="rgb(60, 60, 60)" stroke-width="1px" opacity="0.25"></line></g><g><line x1="0" y1="370.00000000000045" x2="749.333" y2="370.00000000000045" fill="rgb(0, 0, 0)" stroke="rgb(60, 60, 60)" stroke-width="1px" opacity="0.25"></line><line x1="0" y1="328.0000000000004" x2="749.333" y2="328.0000000000004" fill="rgb(0, 0, 0)" stroke="rgb(60, 60, 60)" stroke-width="1px" opacity="0.25"></line><line x1="0" y1="286.00000000000034" x2="749.333" y2="286.00000000000034" fill="rgb(0, 0, 0)" stroke="rgb(60, 60, 60)" stroke-width="1px" opacity="0.25"></line><line x1="0" y1="244.00000000000028" x2="749.333" y2="244.00000000000028" fill="rgb(0, 0, 0)" stroke="rgb(60, 60, 60)" stroke-width="1px" opacity="0.25"></line><line x1="0" y1="202.0000000000002" x2="749.333" y2="202.0000000000002" fill="rgb(0, 0, 0)" stroke="rgb(60, 60, 60)" stroke-width="1px" opacity="0.25"></line><line x1="0" y1="160.00000000000017" x2="749.333" y2="160.00000000000017" fill="rgb(0, 0, 0)" stroke="rgb(60, 60, 60)" stroke-width="1px" opacity="0.25"></line><line x1="0" y1="118.00000000000011" x2="749.333" y2="118.00000000000011" fill="rgb(0, 0, 0)" stroke="rgb(60, 60, 60)" stroke-width="1px" opacity="0.25"></line><line x1="0" y1="76.00000000000006" x2="749.333" y2="76.00000000000006" fill="rgb(0, 0, 0)" stroke="rgb(60, 60, 60)" stroke-width="1px" opacity="0.25"></line><line x1="0" y1="34" x2="749.333" y2="34" fill="rgb(0, 0, 0)" stroke="rgb(60, 60, 60)" stroke-width="1px" opacity="0.25"></line></g></g></g><g><g><line x1="0" y1="370.00000000000045" x2="749.333" y2="370.00000000000045" fill="rgb(0, 0, 0)" stroke="rgb(153, 153, 153)" stroke-width="1.5px"></line></g></g><g><g><line x1="43.64099999999995" y1="0" x2="43.64099999999995" y2="378" fill="rgb(0, 0, 0)" stroke="rgb(153, 153, 153)" stroke-width="1.5px"></line></g></g><g><g><g><g><g><path style="fill: none;" stroke="rgb(255, 112, 67)" stroke-width="2px" d="M44.15976899999995,148.04088115692153L44.85146099999995,-82.16933538820047L59.866941499999925,-10.731057215828912L60.32806949999993,5.127417436717906L60.52981299999992,22.589455597310916L60.55863349999992,26.419042843750958L61.91319699999992,40.882032497390185L62.287863499999915,46.23953510379465L62.69135049999992,-3.7653863739949998L64.21883699999992,-26.5273425339106L64.44940099999992,10.535121338362273L65.68868249999991,36.04105909992967L65.80396449999992,62.822591175457774L65.86160549999991,79.60637505947778L66.26509249999991,45.40428725897755L66.32273349999991,46.35233615354554L66.75504099999992,78.19472990600826L66.92796399999992,48.58887583442538L67.73493799999991,52.51171267784059L70.87637249999992,67.4942461837249L71.62570549999991,84.56317445352619L71.6545259999999,55.71331936666962L71.82744899999992,-14.08666638996442L72.5191409999999,25.512660632958045L72.6056024999999,11.883181746186267L72.8649869999999,39.15176540969975L74.2771914999999,42.51517577418747L74.3636529999999,47.55017505613449L75.14180649999992,70.43032845369606L75.31472949999991,83.95211545758127L75.4588319999999,68.74007281879642L76.9574979999999,84.4431067061679L77.1016004999999,116.11629820810208L77.1304209999999,79.4494429584388L77.6491899999999,84.49841953711024L79.4937019999999,106.55651141053505L79.9836504999999,101.66927870812623L81.5687779999999,92.48895271832822L81.6552394999999,94.72451959289822L82.05872649999989,106.85937572480537L82.1740084999999,91.27577342324088L83.55739249999989,99.5760637150297L83.7591359999999,104.39504057641062L84.3931869999999,114.01137236722286L84.73903299999989,106.14534745068204L85.0272379999999,116.30675726214093L85.8918529999999,112.46159827210471L86.20887849999988,90.08597399014224L86.6123654999999,89.59202222952058L87.53462149999989,112.11836713620693L88.37041599999989,144.75260510467876L88.8315439999999,100.80282604167752L89.2926719999999,132.85642955065185L89.40795399999989,150.02155457062406L89.89790249999989,139.68653178218725L90.90661999999989,125.04247415169019L92.11708099999989,93.72921965664557L92.37646549999988,85.73685941295872L92.89523449999989,98.41828760048253L93.15461899999988,112.27120046639453L93.55810599999988,95.21817857697317L93.61574699999989,82.19502580335973L93.70220849999987,98.74388474695166L94.9703104999999,95.34834011552789L96.26723299999988,101.22618316217284L96.78600199999988,71.71725485235044L97.04538649999988,76.47226904291892L97.42005299999988,95.74268610445188L97.50651449999988,84.9513907928656L97.73707849999987,108.52808898986171L98.88989849999987,80.40826502420447L99.37984699999988,98.07257593948697L99.66805199999988,100.2996709019871L99.75451349999989,89.06767231981115L101.31082049999988,84.73327895128244L101.65666649999987,38.59474709122583L102.31953799999988,13.313934067171544L103.50117849999987,55.959027420837856L103.73174249999987,67.26674730879495L103.84702449999986,86.9358042472063L104.04876799999987,83.8741371521038L106.67143349999986,80.53694429626438L106.78671549999986,116.80914806715185L107.01727949999987,141.66335827841408L107.36312549999987,112.7467516983844L107.93953549999986,139.0654488071289L108.08363799999987,105.04164360285682L108.11245849999986,105.01471824967143L108.68886849999987,83.65945187788543L108.83297099999986,116.73280175895394L110.12989349999987,139.30227050041745L110.47573949999986,167.89785278085878L111.22507249999985,173.97401730377825L111.48445699999986,158.70975777909692L112.49317449999985,167.68855126465954L112.52199499999986,166.85653704140964L112.57963599999987,186.79121514323757L113.84773799999986,150.22478184456523L114.33768649999986,139.6135871037467L114.39532749999987,75.18586734997183L114.53942999999985,92.37895599072681L115.25994249999985,109.9441827025895L115.28876299999986,100.14320349472149L115.57696799999987,124.2003157652345L115.63460899999986,100.46625660867784L115.77871149999984,98.7114652988821L116.18219849999986,124.90120312419089L116.35512149999985,113.72046527846265L116.61450599999986,131.77323968428385L117.04681349999987,126.91703629522638L117.21973649999987,110.99322365146878L121.02404249999985,84.68479112756341L121.54281149999984,78.48764749359037L122.60916999999985,74.39637779917979L123.01265699999985,81.09378896500601L124.02137449999985,111.01907842081215L127.10516799999985,132.5748273346222L129.15142349999985,155.24097725798163L129.38198749999984,146.9726089004007L130.41952549999985,127.77852541096647L131.19767899999985,159.45243009924343L131.28414049999984,149.01217470925852L132.95572949999985,135.24633839582125L134.74260049999984,132.63856503365577L135.72249749999983,148.14393951991568L135.75131799999983,138.14239439547896L136.73121499999985,149.8368604236546L137.01941999999983,133.18413363325365L137.13470199999983,129.7595466636358L137.19234299999982,152.08793548755654L137.22116349999985,164.30271170405493L138.89275249999983,170.888708934334L140.04557249999985,144.1563068877289L140.93900799999983,140.31590318462258L141.71716149999983,148.42849143992075L141.86126399999984,141.68534203049234L142.49531499999983,145.43802120545644L143.04290449999982,139.7811234107757L143.47521199999983,123.49860361063807L143.93633999999983,114.86833443703563L147.39479999999983,138.30502997621932L147.91356899999982,128.88684390398876L147.97120999999981,155.5741703045363L149.00874799999983,158.55974512046805L149.41223499999984,167.32433734906652L151.02618299999983,165.80429438365175L151.1414649999998,160.2465750516029L151.45849049999984,162.27526511273354L152.9571564999998,160.93179436796842L153.5623869999998,175.95381012888723L153.7064894999998,179.96222661960343L153.76413049999982,166.23603280790095L154.0523354999998,142.08183922659308L155.0034119999998,106.06753350434707L155.3492579999998,113.35842353807726L156.8479239999998,103.64320528042396L157.6548979999998,103.44476573938812L158.4618719999998,128.59392309829158L159.55705099999983,141.9415245471824L159.8740764999998,135.0027500803603L159.96053799999981,121.16170319747488L161.6033064999998,137.9353534074214L161.7474089999998,120.73096720117326L162.0644344999998,134.73047875918965L164.1683309999998,133.35692131440115L164.51417699999982,147.70161080580624L164.5718179999998,146.92656020919912L164.7447409999998,152.30362556635902L165.4652534999998,131.85766190806982L165.60935599999982,149.02328741503365L165.6958174999998,164.91435621127064L166.5027914999998,176.70299359244004L166.5892529999998,188.60205807689968L167.6844319999998,186.304943788372L168.0590984999998,175.3549660948558L168.1167394999998,162.7257606582601L170.4511999999998,175.09558674531223L171.4022764999998,177.16027786501667L173.1026859999998,154.52214295844362L173.59263449999978,156.25223119566706L174.19786499999978,181.55955166014255L175.5812489999998,196.3933189233773L175.6677104999998,168.44177237681217L177.02227399999978,179.53984248791488L178.0598119999998,207.91979767009053L178.17509399999977,194.96053828405866L178.4056579999998,206.75598112862772L179.47201649999977,199.86647970554296L180.53837499999977,200.74629809506857L180.7689389999998,209.0696632201676L181.6335539999998,170.49197674025L181.9793999999998,177.16488126943958L182.03704099999976,189.39388552182257L183.13221999999976,157.96750089349965L183.47806599999979,173.19744005724215L184.68852699999977,180.58677037176616L186.64832099999978,183.22018635274424L186.9077054999998,194.3133531799437L186.99416699999978,143.5894088699136L189.18452499999978,97.62862641524174L189.2421659999998,95.06734209432074L189.2709864999998,122.89402915367151L190.79847299999975,154.24008925963895L191.60544699999977,126.5250188113676L193.50759999999977,115.80480325710647L194.63159949999977,137.08303721452998L197.22544449999978,126.7559456584728L197.68657249999978,129.85442539121246L198.09005949999977,120.54578006162768L199.84810999999976,99.17730383785806L200.48216099999976,132.62668868717145L202.58605749999975,143.07615712204978L202.64369849999974,151.6992802947059L203.56595449999978,159.52618113759894L204.25764649999977,159.230125043137L204.66113349999978,155.23414391603225L205.90041499999975,172.2451965130107L206.76502999999974,169.43483766249068L206.88031199999978,150.69293618030943L207.31261949999973,119.55932126856408L208.49425999999974,139.03484951713267L208.58072149999975,154.60676498181766L210.10820799999976,168.31502638376426L211.03046399999974,196.51505856197156L211.52041249999974,160.24502544101333L211.60687399999975,122.81551665016892L212.58677099999974,131.78732642322257L212.64441199999973,135.90702550523326L212.84615549999972,125.85522532136724L213.88369349999977,124.80156916346829L214.48892399999974,112.25928500720141L215.18061599999973,129.0283522307508L215.32471849999976,127.87568984600856L215.49764149999973,83.82989185730509L216.27579499999973,109.94686952421733L216.85220499999977,124.11808270325074L216.99630749999974,130.29668072886628L217.42861499999975,134.03664246263867L217.57271749999975,136.39610471777345L218.81199899999973,158.78228704095142L220.05128049999973,161.67813259250858L220.33948549999974,173.25686492921847L221.78051049999974,169.6031116798561L222.32809999999975,150.6216540185009L222.70276649999974,169.48611137845444L222.87568949999974,138.68771829510897L223.25035599999973,155.6779333991796L224.89312449999974,150.30225840923868L225.55599599999974,160.38136445066448L225.70009849999974,134.24443025179195L226.39179049999976,155.87901443750854L227.02584149999973,174.7454706949524L227.40050799999975,157.694740588461L228.09219999999974,157.73729945722772L230.85896799999975,162.8490180788334L230.97424999999973,154.7118428022553L231.55065999999974,149.94932667873104L233.1069669999997,156.0802237154665L233.39517199999975,135.1100314744383L233.9427614999997,122.71722945623338L235.49906849999974,98.3666519798823L235.75845299999972,113.97202276047926L236.1042989999997,105.56271049317633L236.19076049999973,122.61566989941912L236.62306799999973,99.72958101476394L236.70952949999975,111.7001083071309L237.05537549999974,139.48266970938755L237.83352899999974,125.23542855691403L237.9488109999997,125.10492541227305L238.2658364999997,138.67124085702034L240.5426559999997,143.10927747154741L240.94614299999972,101.73398729962577L241.17670699999968,122.49683468083197L241.6090144999997,120.05520982488986L243.4823469999997,79.85229354113574L244.40460299999972,112.96512147466859L245.15393599999973,123.96158203528518L245.7879869999997,97.9535089591983L248.4394729999997,100.13581820855438L248.6700369999997,98.1720522536524L249.8516774999997,111.48829185274724L251.6097279999997,121.72489980411359L252.50316349999972,132.02140746382005L254.03064999999972,155.58829305316465L254.34767549999972,172.11801440759723L254.8664444999997,163.7029218871911L255.15464949999966,162.95727584580584L255.1834699999997,140.56886133490246L255.7310594999997,140.01592675539473L256.39393099999967,158.45647548580433L256.9415204999997,171.28180371556314L258.0655199999997,158.49015522565026L258.1519814999997,153.11832712259456L258.3537249999997,157.8065832139113L258.6419299999997,183.57168607300932L258.7283914999997,175.61333915139733L259.1606989999997,157.34663638883686L260.1117754999997,142.52552448233297L260.6593649999997,105.61649170606245L262.9361844999997,73.44528127171571L263.94490199999973,60.16594568249616L264.4348504999997,98.222277551741L264.8671579999997,113.11182554995594L265.1841834999997,160.27947413419096L265.3571064999997,171.25403384839848L266.3658239999997,161.68617203787466L266.8845929999997,183.05924126588286L267.2880799999997,169.10743003723064L267.8644899999997,165.40683491597594L268.09505399999966,181.7909693504399L268.3832589999997,191.48369002949616L269.3919764999997,170.32986373071577L269.5360789999997,159.43703142467572L271.2941294999997,186.26049603080736L271.3229499999997,159.44457459178153L272.24520599999965,154.62782368052518L273.94561549999963,160.48207758894014L274.9543329999997,173.18780948314406L275.2713584999997,173.82018131714722L275.6172044999997,156.68206249244793L276.1071529999997,164.13612776716948L279.3926899999997,165.32438317830736L279.50797199999965,175.7125997121429L279.91145899999964,178.6920438129352L280.40140749999966,174.0326382061158L280.57433049999963,176.7824648725134L282.2459194999997,176.0199489739281L282.5629449999997,191.02830802509092L283.62930349999965,183.48391012599674L283.7734059999997,162.91381122669085L283.83104699999967,172.00667567952894L284.00396999999964,170.9002067837763L284.66684149999963,171.24126218330022L284.81094399999967,175.43337865411445L285.0703284999997,179.9170860424739L287.66417349999966,167.2393034081544L287.75063499999965,183.42627094969126L288.5576089999997,193.82078331038454L288.70171149999965,191.4953713399419L288.8458139999997,179.21645631261973L290.51740299999966,168.790084383194L291.26673599999964,171.47440619131453L291.52612049999965,166.77327985711855L292.47719699999965,201.43961664600283L292.50601749999964,209.70734606763236L292.76540199999965,214.86304325742512L293.8605809999996,231.14654066005005L294.09114499999964,207.8002330169058L294.2352474999996,203.31226022920416L297.29022049999963,197.13458056574396L297.80898949999965,167.82259714077588L297.89545099999964,188.0640508383871L298.50068149999964,169.96019693663723L298.81770699999964,186.92879393219192L299.50939899999963,193.6118488033614L299.71114249999965,172.42603012250277L300.2010909999996,168.97908108917449L300.25873199999967,131.67605284839533L300.34519349999965,122.80662901361188L300.95042399999966,129.40752597527324L301.1521674999996,152.80022377611553L301.8150389999997,172.27295266417673L302.30498749999964,191.51237726053506L302.82375649999966,176.9827785574162L302.99667949999963,191.54059759156505L303.28488449999963,194.84064129377737L303.83247399999965,174.16514673932988L304.6106274999996,153.5192653264108L304.84119149999964,161.0064686548331L305.44642199999964,190.53637416125014L307.4926774999996,187.75213755447948L309.53893299999964,212.9899342268345L309.7406764999996,212.02497002808437L310.51882999999964,194.8762989681666L311.8733934999996,178.76944199143833L312.13277799999963,203.29036187955978L313.05503399999964,166.58070407154094L313.66026449999964,185.66305994443587L314.89954599999965,191.22903656983848L314.98600749999963,171.1077749864694L315.56241749999964,178.51758810217336L315.76416099999966,189.3233448126202L316.51349399999964,190.8699479033643L318.5309289999996,172.9065070170798L318.7903134999996,144.11491477357416L318.99205699999965,147.15018033203887L319.36672349999964,139.15348769494773L320.00077449999964,123.22618743991563L320.3177999999996,155.67996656071617L321.0959534999996,165.17306835634184L321.7876454999996,167.17119354271875L321.9605684999996,151.93984330014024L322.6234399999996,159.2615845754009L323.14220899999964,176.09769399741748L325.1596439999996,147.4529886278362L326.4277459999996,141.31274028095922L327.23471999999964,172.83981377531896L327.3211814999996,167.04108189929173L328.4740014999996,153.09561887617267L329.1656934999996,164.06388476852396L331.0390259999996,135.78229802432355L333.2870249999996,128.00686162222232L333.4311274999996,139.69781791662504L333.51758899999965,147.84712777388216L334.2669219999996,135.79609430063732L334.9297934999996,144.6963968458027L335.5350239999996,118.66545829181194L335.9961519999996,122.95142943004362L336.6878439999996,131.78726401418987L337.1777924999996,137.90974231680372L339.2240479999996,156.8644640763994L339.8004579999996,168.93717570759554L340.0022014999996,147.18210821949643L343.2589179999996,172.36359880787003L343.3453794999996,195.07335593683524L343.9506099999996,163.02032684006943L344.0947124999996,181.62670091952808L345.6510194999996,185.25035275469278L345.9392244999996,185.98853855282513L346.05450649999955,184.31794375982656L346.89030099999957,149.68645250987248L347.14968549999963,157.79335194936505L347.81255699999963,162.37625354667946L347.8413774999996,149.16387024804806L349.08065899999957,164.54324710699922L349.3400434999996,174.93963350666624L349.82999199999955,176.2614319340832L349.9740944999996,161.73644893019244L350.2334789999996,194.8368650114918L350.4640429999996,187.81507763972598L350.69460699999956,178.27619584289508L351.1845554999996,197.35792625079804L352.33737549999955,207.43904869282622L353.4037339999996,222.11506429787764L353.6631184999996,203.5312371827391L353.6919389999996,204.4883185777916L354.3259899999996,175.56433404286759L354.52773349999956,190.4812753152217L355.3347074999996,184.60197286203865L355.6229124999996,181.53312208852114L355.76701499999956,187.7414483571449L356.08404049999956,180.0135138936182L356.3434249999996,161.54760254539121L356.74691199999955,168.04373822086458L357.8420909999996,203.7993411995558L357.92855249999957,218.28161414056558L358.9084494999996,218.24572717836L359.02373149999954,205.51349999362725L359.68660299999954,200.64873093707308L359.85952599999956,210.35847220513557L359.9171669999996,201.60945161057373L361.06998699999957,223.75334352276948L361.24290999999954,223.65797593611973L361.3005509999996,240.2943499540905L361.6175764999996,233.7198057923194L361.76167899999956,245.31483380632528L362.1651659999996,220.7032732946269L362.8856784999996,223.69360887955798L363.60619099999957,216.25030760533988L364.1537804999996,191.13971244772335L364.4131649999996,194.90576351117505L364.93193399999956,181.05423626111883L365.7100874999996,203.60930213196454L366.3729589999996,214.35397248679735L366.4305999999996,205.2050892898473L366.45942049999957,211.2637596277074L368.15982999999954,204.42058780078756L368.50567599999954,205.859330446053L369.60085499999957,229.71307126208123L371.0707004999996,223.27148259500612L372.7422894999996,221.37083685598972L373.77982749999956,202.87092078566783L374.2697759999996,201.16808523491105L374.84618599999953,207.67528195019793L375.73962149999954,199.96020650696502L375.9990059999996,196.4994548087519L376.4889544999996,163.109539351321L376.7195184999996,166.35945952853763L376.97890299999955,176.95893737791422L377.87233849999956,184.8685475607172L378.9963379999995,160.82132260292636L379.3421839999996,181.9828641168393L379.68802999999957,193.6087033734483L380.0050554999995,213.0748695929204L380.4085424999996,222.20726254394287L380.4661834999995,220.39113282142534L381.50372149999953,210.5496841441599L382.54125949999957,201.60858020797158L383.3194129999996,205.9365288546831L383.7517204999995,199.33172261050518L384.61633549999954,206.70283768768653L385.3080274999995,207.20543825279373L385.82679649999955,215.18070269105218L387.5560264999996,191.3930460168241L387.9306929999995,182.36881349940705L387.9883339999995,119.53225580086695L388.5935644999995,143.4027661142318L388.73766699999953,147.8447000017064L389.1411539999996,128.27515510745917L389.4293589999995,146.77927707472804L389.57346149999955,164.44650994962805L389.7752049999996,170.63659640721812L390.32279449999953,190.76317522744526L390.6686404999996,212.9304221302112L393.46422899999953,175.57838740595446L393.8965364999995,200.3899580173032L394.21356199999957,194.02257193006122L394.32884399999955,185.84997174606423L394.7899719999995,188.47000080875026L395.7410484999996,184.03295139370545L396.0004329999995,177.59565362528255L397.84494499999954,187.40280747861158L397.9314064999995,180.19714682951383L398.3925344999995,180.03309399319494L400.89991799999956,165.41333176016903L401.1593024999995,155.91945769638141L402.0527379999995,152.25882297468448L402.6867889999995,163.35168680143963L403.32083999999946,159.3456377014821L405.1941724999995,145.96017804482122L405.42473649999954,124.78333787129779L406.66401799999954,143.63954355118054L407.49981249999956,139.55955562741977L408.8255554999995,104.58271507312037L409.6325294999995,123.65897190447456L411.33293899999956,135.10051199238174L411.79406699999953,151.9624369603658L412.68750249999954,162.68518145662588L413.52329699999956,185.9261164984173L414.24380949999954,195.45939026815967L414.38791199999946,207.50683775413046L414.7625784999995,198.04472193799597L415.3101679999995,214.7759091385959L416.54944949999947,190.47802398601445L417.12585949999954,209.8887015954594L418.79744849999946,192.0608381906333L419.28739699999954,198.4108060819586L420.0655504999995,204.1585813563337L420.0943709999995,210.754522131707L420.32493499999947,216.37176277216184L420.6707809999995,221.1053749486204L421.01662699999946,223.25285700058717L421.4489344999995,221.25650632365242L421.56421649999953,236.47370456300618L422.0541649999995,239.0451951963754L423.09170299999954,234.9319547231018L423.5240104999995,223.7560086145099L423.8122154999995,226.5290257757394L423.89867699999945,218.8777509325749L424.2445229999995,206.71022920558985L424.2733434999995,173.13879950444013L424.38862549999953,197.51609829222463L425.1955994999995,213.10630548748588L425.94493249999954,200.1306860947875L427.3283164999995,212.3207177612336L428.36585449999944,210.75700794131578L429.89334099999945,186.25427571177374L430.0086229999995,188.32248184783853L430.58503299999944,196.68299253663812L431.99723749999947,199.94638001852556L432.83303199999943,200.21688371317117L434.0434929999995,219.6421716045793L435.5133384999995,229.88425811757364L435.9456459999995,208.12379865531057L436.1762099999995,183.8497916303578L436.34913299999954,178.8436925490859L437.7901579999995,186.05343383021116L437.87661949999944,174.75397794664414L437.9630809999995,167.17105731319847L438.3377474999995,184.0300884958071L439.1159009999995,204.41889770274176L439.8364134999995,210.0262666506975L440.0381569999995,217.57225864044395L440.6722079999995,231.7043655310316L441.65210499999944,220.1747722198179L442.6608224999995,188.29331497831305L443.3236939999995,205.6321686991254L443.41015549999946,197.0007385275942L443.78482199999945,206.32508719608546L445.31230849999946,219.25656229838677L445.8887184999995,211.4884215689369L445.97517999999945,187.11179371679106L446.23456449999946,201.24535237109228L446.26338499999946,193.99599500441383L446.4363079999995,177.21062933811814L447.0127179999995,154.59972498596218L447.0703589999995,138.95702230526393L449.4336399999995,152.95195812461478L449.6065629999995,181.30937118734371L451.7681004999995,159.05311563318307L453.49733049999946,171.20250004810933L453.6702534999995,163.33474163861405L454.3331249999994,184.13455513983877L455.3994834999995,189.356500045337L455.4283039999995,181.74415323043888L455.6012269999994,191.9541864253778L455.86061149999944,202.90992681853032L456.3505599999994,204.60302407311553L456.69640599999946,179.38823893036718L456.8693289999995,202.90137732578066L457.4457389999995,214.84031020192197L458.5697384999994,220.62212684894732L460.0107634999994,213.02406686712058L461.36532699999947,209.93360748525862L462.40286499999945,179.5480518997658L463.09455699999944,179.97749992206786L463.1810184999994,189.2215220635327L465.34255599999943,205.98756027979857L465.51547899999946,218.81471927939845L466.3800939999995,209.91264407649166L466.6394784999994,220.14241753981204L466.7547604999994,214.12081660369495L466.92768349999943,215.41951798757748L468.62809299999947,212.80822874303874L469.5791694999994,180.55945426022262L469.6079899999994,178.5612555725341L469.8385539999994,162.52547786381112L469.95383599999946,177.21559258124134L470.4437844999994,193.64808436706656L470.61670749999945,199.76298814721108L471.51014299999946,193.24023824640506L472.2882964999995,209.7299358978012L472.83588599999945,210.15202997553388L473.75814199999945,198.3436311401142L473.78696249999945,206.75255852873343L473.8157829999995,204.14083280128344L474.5074749999995,196.14683815861218L476.7266534999995,187.56633344479766L478.54234499999944,184.29945663226368L479.75280599999945,180.4680980542281L479.8680879999994,189.38759416826076L481.13618999999943,190.41124117777355L481.68377949999945,172.21097452880406L482.7501379999995,158.13976411484973L483.6147529999994,171.28240963810157L483.8164964999994,169.36672697252598L484.10470149999946,195.79943319064807L485.2863419999994,192.98989148377206L485.7762904999994,179.79052147147164L485.9492134999994,191.49666770070547L486.15095699999944,204.15240161355774L487.5055204999994,219.48440749602244L487.64962299999945,217.2115236006021L488.1107509999994,197.30957687863614L488.28367399999945,203.36850453700757L488.57187899999946,166.28949565615318L489.0906479999994,175.76405819609252L489.5805964999994,156.39050427284772L489.63823749999943,163.8998325469909L490.56049349999944,176.91988909363195L491.45392899999945,206.7343302145341L492.80849249999943,196.84624135635127L493.15433849999937,152.46147806284827L493.4713639999994,148.45347996259946L496.2093114999994,150.6980006673609L497.2756699999994,172.80527966895283L497.9673619999994,165.1238077003616L498.22674649999936,154.91176874507366L498.3996694999994,171.94756988455185L498.8319769999994,177.73080925242192L499.7254124999994,173.14201420545524L499.81187399999936,191.29175224733314L500.35946349999944,204.446822012943L500.90705299999945,189.4227245407909L504.1637694999994,219.31054317898872L504.3943334999994,200.65375848535868L504.5672564999994,207.62586491649267L505.2589484999994,221.42363278896585L506.3829479999994,219.38265007960177L507.16110149999935,210.15131275746404L507.5069474999994,214.05635527077445L508.1121779999994,222.56717387640683L509.81258749999944,198.38710338875748L510.18725399999937,221.41167544241995L510.47545899999943,209.08900311337234L510.5907409999994,208.78681420307302L511.9453044999994,216.44300555850495L514.0203804999994,236.4948874953751L514.6544314999994,223.82522251233254L514.8561749999994,236.83511160664395L515.1443799999994,215.37507787519093L515.7207899999994,204.8734308161762L516.4701229999994,203.67188878167187L517.4500199999993,208.76258001646087L517.7094044999994,204.77748459146434L519.3233524999994,200.9009305364979L520.8796594999994,219.5145827322147L521.6289924999994,231.79366981669267L521.7730949999994,244.48970880437986L523.8193504999994,241.87672615831903L523.9346324999995,239.20206710988086L524.8568884999994,224.18287595038063L526.2690929999993,218.7585558058534L526.8455029999994,191.3029239133344L527.7677589999994,188.09162371933937L528.0559639999993,198.4592678302424L528.0847844999994,213.08485011975395L528.8052969999994,209.88469953814544L529.0646814999994,199.66203065950535L529.4681684999994,210.89869571390489L530.6786294999994,208.18658795809154L531.3991419999993,203.19828892969787L533.5606794999993,201.55520395145933L535.4916529999994,156.2688174592206L536.3850884999994,196.9373927979962L537.3649854999993,174.51769063695812L537.3938059999994,191.08660902990923L538.0278569999994,194.34484136955413L539.1230359999994,209.60831582681925L539.2671384999994,194.46831440084821L539.4112409999994,202.62825127092836L540.4775994999993,195.0636892912686L540.7081634999994,170.8287822511845L541.1116504999993,200.35121992403953L541.4286759999994,205.15530345107462L541.9474449999993,231.12687217478728L542.0050859999993,246.1141763852133L542.6679574999994,244.30590224227413L542.6967779999993,239.07726118913934L542.7255984999994,247.79015371441616L542.8120599999994,240.0802082443982L543.3596494999994,229.62150343813417L544.3683669999994,231.51329064766756L544.8583154999993,222.65408844134174L545.2329819999994,237.78690987901854L545.2618024999994,229.30245084635453L545.8670329999994,229.0817164166365L546.1552379999994,199.88723035295308L546.3858019999993,135.87999675961393L546.6740069999994,143.74965355605877L548.0862114999994,141.09980077460162L548.3167754999993,159.8531879882125L548.4320574999994,174.70007296054467L549.2390314999993,179.35097998360683L549.6425184999994,167.5502654569871L549.8154414999993,163.51737814933685L550.2189284999994,170.38960396688984L550.4783129999994,184.81394161716688L550.6800564999993,196.28846797730938L550.7088769999993,192.77575210986038L550.8241589999993,175.43182491388163L551.5446714999994,194.74398598425623L551.8328764999994,191.49311721139875L551.9481584999994,177.56438049162452L552.4092864999993,172.8641390147561L552.8127734999994,172.40367875388975L553.8503114999994,167.9343098618777L554.0808754999994,168.6027708186244L554.3979009999994,168.25630430180843L555.8101054999993,187.81666947643743L555.8389259999993,172.25913717723225L555.9830284999994,191.21803868493552L556.7611819999994,209.99893868151003L557.8563609999993,214.6526729913553L561.0554364999994,211.41590391843167L561.3148209999994,210.74932945774873L561.7759489999993,198.67628008148796L561.8624104999993,205.2701838209041L562.1217949999993,185.7387755878417L562.9287689999994,201.27009248577397L563.9086659999994,207.52365685046962L563.9374864999993,228.85903427523698L564.1968709999993,227.4303485894459L564.2833324999993,243.946691764357L565.4073319999993,242.82770219920545L566.1278444999994,232.10852885260272L566.5601519999993,242.1393238812658L566.6177929999993,205.8553378965355L566.8483569999993,214.02083167499967L567.8858949999993,198.25417927606375L568.5775869999993,179.57224993524244L569.2116379999993,195.4519578962484L570.0186119999993,216.98955437699303L570.3644579999993,200.74720382059192L571.5749189999993,195.76966843556693L571.6613804999994,219.11939304879024L572.8430209999993,190.0357798598857L573.0735849999993,187.94817650772396L575.4080454999994,199.85004707046795L575.4368659999993,185.80536393184016L577.9442494999993,192.98181832450945L578.1748134999993,190.68782753501776L579.4429154999993,183.0559373269449L579.4717359999993,205.4915340634004L580.9415814999993,218.77607865472547L581.2009659999993,197.55303489266643L582.9590164999993,197.12081794566126L583.1607599999993,179.62529647836098L583.9965544999993,175.21558989547546L585.0629129999993,184.7771598231107L585.5528614999994,175.85122112787266L586.7633224999993,186.68784785056724L588.1467064999993,199.3552249471029L589.2995264999993,187.7501235224142L590.0200389999993,179.62750253757065L590.5676284999993,163.32119698514492L590.7117309999993,181.954049189866L591.3746024999994,213.3629020361342L591.5187049999993,219.08974879269346L591.6628074999993,229.26173755817362L592.0086534999994,234.9416615014431L592.6138839999993,227.11117294335077L593.9684474999992,206.24441700283572L594.5736779999993,202.65177646945355L595.6400364999993,183.92698121434256L596.1011644999993,183.82335365502388L597.3980869999994,186.01666480156496L597.7727534999992,182.02726566669804L598.8391119999993,177.19696572011756L599.0408554999993,190.3685538181424L599.1561374999993,200.5301071498482L599.8766499999992,209.87451582633946L600.6259829999992,201.83350443413127L602.9604434999993,169.6182393992192L603.0469049999992,166.8002799099935L603.1910074999993,189.29340737613865L604.6320324999994,201.78818644726235L605.2084424999993,207.91493348049897L605.6407499999993,188.92446490159423L605.7272114999993,204.23729966888453L605.7848524999993,212.86988628261898L606.3612624999993,215.8378434773108L606.5341854999992,215.662071687353L607.1970569999993,174.80065983268992L607.9175694999992,172.46580455464297L607.9752104999992,174.63994124184183L608.3498769999993,188.07034946915422L609.5026969999992,200.21325189538317L609.6756199999993,217.41168201139945L610.0791069999993,209.0177457346776L610.3961324999992,227.91432333801825L610.6555169999993,231.32372861963296L611.9812599999993,233.52755942421166L612.1830034999994,204.58805868479482L612.2982854999993,222.56973299448484L612.4712084999993,209.77658339172513L613.6240284999993,220.30677151952673L614.1716179999993,210.38953764093299L614.9497714999993,217.79053533209546L615.6126429999993,222.24516872325356L617.6300779999992,208.9746421552433L617.9182829999993,205.97913417623863L618.2641289999992,230.7270913518881L618.7540774999993,236.32772028488415L619.2152054999992,245.26510793482626L619.4457694999993,249.42292915150313L619.7051539999992,230.71340529616185L619.9068974999992,237.74364839740858L621.0597174999994,248.236003261234L621.4343839999992,225.28293547239517L621.5784864999993,237.157567640105L621.7514094999993,236.98947789506715L621.8378709999993,247.435328854927L624.0282289999993,253.97282826706646L624.0570494999993,242.95820656233693L624.1146904999993,249.19205634535325L625.3251514999993,232.66841499241684L625.4116129999993,244.32338310211338L626.3050484999992,238.7594768639137L626.9390994999993,259.3095008067417L627.0832019999992,269.80554112779413L627.1696634999993,268.17875618256573L627.3137659999993,256.55483113525827L628.4954064999993,251.79865177210542L628.9277139999992,253.6039576178061L629.3600214999992,249.70535852075244L629.6194059999992,233.98206998398345L629.6770469999992,255.8219629688666L630.2246364999993,238.43717177789605L630.8010464999992,239.24283177283962L631.0892514999992,239.94368691486252L631.4927384999992,246.54028182198067L631.5215589999992,199.5688474016844L632.6743789999992,180.25204013434706L632.7320199999992,171.43675481059998L633.3660709999992,191.68679761783292L634.0289424999993,167.860720639323L635.2105829999992,204.24953171753145L635.5852494999992,219.8582279674927L635.6140699999993,207.8966389745417L636.1616594999992,208.05410565185076L636.1904799999993,210.405960813343L636.2481209999993,162.0179597446017L636.3922234999993,183.07854724765147L636.7092489999992,163.1583243096188L638.8131454999992,146.98698279886943L639.8795039999992,160.16917977281156L639.9083244999993,158.05568741869655L640.3982729999992,156.79438437299888L640.5135549999992,162.8034822121306L641.5799134999993,178.48395144892103L642.4733489999993,194.81407199295734L642.5021694999992,205.60687593421997L642.5886309999992,230.93182127256188L642.6174514999992,243.0545290057036L643.5973484999993,261.0706928264253L643.7414509999993,270.77259002381953L644.0008354999992,270.68954440104625L644.1449379999992,224.27378663884454L644.6925274999992,237.53428633646595L645.6436039999992,242.6986880060982L646.3352959999992,225.93756521504952L646.3641164999992,225.53924237213383L647.4016544999993,203.3583846465963L648.4968334999992,231.32151729075255L649.6496534999992,224.04935434227366L649.8225764999993,248.63915769978996L649.8802174999992,247.63416969675723L649.9090379999992,228.93604473793394L650.4278069999992,215.02123347588255L650.8024734999992,217.02380005148726L651.0618579999992,224.493051673355L651.1771399999992,211.5223187046032L653.0216519999992,205.36410109124606L654.8949844999993,220.02414382504548L655.5578559999992,207.04140729973645L656.0189839999993,215.54910264301887L656.5953939999993,200.14862432451355L657.9787779999992,182.73274204688198L658.0652394999992,180.31167197878528L658.2093419999992,198.12417935054773L660.1403154999992,202.3977924660852L660.6590844999993,216.9415997677685L662.8206219999993,206.612681400155L663.9446214999992,205.80664091382823L663.9734419999992,222.50264974353618L664.9533389999992,217.08062969839276L665.7891334999993,208.05907681563326L666.1637999999992,223.23711259824427L666.4808254999992,225.7546424755167L667.0860559999992,224.50151029143814L667.6048249999992,242.8611478021197L668.0083119999993,245.2540759216047L668.4982604999992,239.65933462056393L668.8729269999992,235.5385375013017L669.7087214999992,240.3916558543576L669.7375419999992,245.55845677189217L670.9191824999992,251.07318399354205L671.6108744999992,239.60052738924475L671.7837974999992,222.4465555187324L672.3602074999992,238.0455973367461L672.5331304999993,211.01207769118875L673.1383609999992,201.84720651985214L673.3112839999992,201.57114139515758L674.6658474999992,147.03023575283163L675.0405139999992,169.95862427742134L676.7409234999992,189.5290339249491L677.6631794999993,194.10419410931624L677.8649229999992,180.8731776199838L680.2858449999992,187.77956440059228L680.8622549999992,151.24770051136176L684.0325099999992,164.88460734470962L684.7530224999992,165.97283606516245L684.8106634999992,191.07313654564547L685.1276889999992,196.4519590172167L685.9058424999993,221.852216078386L686.1075859999992,188.262651138057L686.4246114999992,196.01268913702307L686.5687139999992,198.4098415884208L686.7704574999992,206.40317888779202L686.7992779999992,206.8490743541056L687.2027649999992,163.7434729496214L688.0097389999992,173.79902525122617L689.7389689999992,181.7970354041313L689.9983534999992,162.83445101643318L690.0848149999993,159.35884786710187L691.0647119999992,149.34379843066253L691.2952759999991,159.62026513161445L692.2463524999991,186.25688332362077L692.3039934999993,194.69965079438552L692.4480959999992,200.80541721163073L693.3703519999991,174.28612060884626L693.9179414999992,167.55094751867924L695.9930174999992,164.08150151379434L696.0506584999993,155.39173681265376L696.4541454999992,182.6699734662002L697.4340424999992,193.04020365805522L699.5379389999991,200.9876261421867L699.7396824999992,212.1078282832767L700.0855284999992,200.2947954566679L701.0366049999992,219.50283249303965" fill="none"></path></g></g></g></g><g opacity="0.2"><g><g><g><path style="fill: none;" stroke="rgb(255, 112, 67)" stroke-width="2px" d="M44.15976899999995,148.04088115692153L44.85146099999995,-273.7042355537419L48.194638999999945,-86.01549386978172L48.45402349999994,50.43160438537598L50.240894499999946,117.75798678398144L50.38499699999994,-288.599586486817L50.990227499999946,-0.5668842792511555L51.50899649999994,95.50873756408697L52.51771399999994,-240.19103527069137L52.57535499999993,66.45153045654297L52.80591899999994,-1.1928582191467285L56.89842999999993,-225.03678321838413L57.30191699999993,78.87492895126348L59.08878799999992,100.19937396049511L59.866941499999925,114.61487412452709L60.32806949999993,82.0139360427857L60.52981299999992,107.55587577819836L60.55863349999992,45.10868549346924L61.91319699999992,111.64124131202709L62.287863499999915,72.50471472740173L62.69135049999992,-249.33373451232956L64.21883699999992,-4.80257868766796L64.44940099999992,193.19678366184255L65.68868249999991,161.8490076065065L65.80396449999992,195.01187026500722L65.86160549999991,162.4950462579729L66.26509249999991,-123.58579635620146L66.32273349999991,51.038402318954525L66.75504099999992,235.63796699047114L66.92796399999992,-97.83532381057762L67.73493799999991,71.91756844520569L70.87637249999992,141.62505507469191L71.62570549999991,169.03017163276692L71.6545259999999,-87.07097530365007L71.82744899999992,-359.5792484283453L72.5191409999999,221.53698086738612L72.6056024999999,-55.590381622314624L72.8649869999999,174.1548842191698L74.2771914999999,59.16782736778265L74.3636529999999,72.48013138771063L75.14180649999992,183.7216085195543L75.31472949999991,150.9073436260225L75.4588319999999,-6.586573123931942L76.9574979999999,162.2026246786119L77.1016004999999,272.9607713222507L77.1304209999999,-102.12604284286522L77.6491899999999,109.50141429901129L79.4937019999999,215.7912760972979L79.9836504999999,77.46681928634649L81.5687779999999,47.02601075172424L81.6552394999999,105.79558849334722L82.05872649999989,166.95440649986284L82.1740084999999,14.101333618164062L83.55739249999989,140.68160057067885L83.7591359999999,128.2601296901704L84.3931869999999,161.63457930088057L84.73903299999989,67.19015717506409L85.0272379999999,166.62954092025777L85.8918529999999,93.41902852058416L86.20887849999988,-20.72604894638073L86.6123654999999,87.14579582214361L87.53462149999989,223.6769956350329L88.37041599999989,306.36928588151966L88.8315439999999,-116.85266494751005L89.2926719999999,291.5977466106418L89.40795399999989,235.0296419858935L89.89790249999989,88.50363731384283L90.90661999999989,52.519611120224L92.11708099999989,-61.345787048340014L92.37646549999988,46.155680418014526L92.89523449999989,161.22150659561174L93.15461899999988,180.87606191635152L93.55810599999988,10.765159130096379L93.61574699999989,17.699438333511296L93.70220849999987,180.7001107931139L94.9703104999999,78.53231430053717L96.26723299999988,130.33549427986156L96.78600199999988,-74.42217111587547L97.04538649999988,100.02090692520147L97.42005299999988,191.17711961269399L97.50651449999988,31.50879144668579L97.73707849999987,225.28886914253258L98.88989849999987,-58.85180473327654L99.37984699999988,185.5529671907427L99.66805199999988,111.32909297943127L99.75451349999989,33.44253897666931L101.31082049999988,63.26771259307867L101.65666649999987,-189.90083217620884L102.31953799999988,-111.88627958297758L103.50117849999987,267.1537709236148L103.73174249999987,123.26688289642343L103.84702449999986,184.34446573257463L104.04876799999987,68.71159553527838L106.67143349999986,64.00989413261414L106.78671549999986,296.44291758537327L107.01727949999987,264.7508746385577L107.36312549999987,-30.45929908752447L107.93953549999986,269.4056624174121L108.08363799999987,-63.45720052719139L108.11245849999986,104.88137364387518L108.68886849999987,-22.099962234497184L108.83297099999986,280.52462935447727L110.12989349999987,251.07487738132505L110.47573949999986,309.5140695571903L111.22507249999985,204.06549870967885L111.48445699999986,83.1153297424317L112.49317449999985,212.15495705604576L112.52199499999986,162.7360856533052L112.57963599999987,285.51533520221744L113.84773799999986,-30.866125822067318L114.33768649999986,87.06290841102606L114.39532749999987,-243.8847446441655L114.53942999999985,177.52568066120165L115.25994249999985,196.93387687206288L115.28876299999986,51.60502076148987L115.57696799999987,243.34030032157924L115.63460899999986,-17.0738458633424L115.77871149999984,90.02107024192816L116.18219849999986,254.60276186466245L116.35512149999985,58.34919214248657L116.61450599999986,221.17745578289055L117.04681349999987,102.86726713180553L117.21973649999987,32.132437229156494L121.02404249999985,-45.604588985443286L121.54281149999984,47.79703140258789L122.60916999999985,54.134851694107056L123.01265699999985,114.26192045211803L124.02137449999985,259.22051191329984L127.10516799999985,239.32710766792323L129.15142349999985,267.49238640069996L129.38198749999984,106.02449893951422L130.41952549999985,32.72211194038391L131.19767899999985,316.3136723637584L131.28414049999984,97.30805277824408L132.95572949999985,67.07267284393316L134.74260049999984,119.72387790679943L135.72249749999983,224.93246078491234L135.75131799999983,88.6109328269959L136.73121499999985,207.75231122970604L137.01941999999983,50.713486671447754L137.13470199999983,112.7996873855592L137.19234299999982,262.66662299633055L137.22116349999985,224.79493677616142L138.89275249999983,203.50507616996785L140.04557249999985,11.767268180847111L140.93900799999983,121.2967610359193L141.71716149999983,188.60511898994466L141.86126399999984,108.29069733619696L142.49531499999983,164.02271807193773L143.04290449999982,111.76601052284252L143.47521199999983,42.86136269569397L143.93633999999983,72.12795376777649L147.39479999999983,254.37247455120115L147.91356899999982,82.24439859390264L147.97120999999981,287.7399772405628L149.00874799999983,173.34544897079488L149.41223499999984,210.72993695735954L151.02618299999983,158.27646255493178L151.1414649999998,132.72263169288647L151.45849049999984,172.32211112976094L152.9571564999998,154.2784154415132L153.5623869999998,250.34855484962492L153.7064894999998,199.81343209743522L153.76413049999982,98.25869202613842L154.0523354999998,22.461071014404297L155.0034119999998,-72.28902816772478L155.3492579999998,149.4656884670259L156.8479239999998,55.52974343299866L157.6548979999998,102.46201753616339L158.4618719999998,253.14213097095518L159.55705099999983,208.04393172264122L159.8740764999998,100.63929557800299L159.96053799999981,52.61556625366211L161.6033064999998,221.00485920906092L161.7474089999998,35.528292655944824L162.0644344999998,204.06139314174675L164.1683309999998,126.55454158782968L164.51417699999982,218.74197781085994L164.5718179999998,143.08821439743056L164.7447409999998,178.93290162086504L165.4652534999998,30.601460933685303L165.60935599999982,234.03400421142604L165.6958174999998,243.61298263072993L166.5027914999998,235.0848168134692L166.5892529999998,247.53075838089015L167.6844319999998,174.92875874042528L168.0590984999998,121.12650513648998L168.1167394999998,100.18112421035778L170.4511999999998,236.35567784309413L171.4022764999998,187.38541483879106L173.1026859999998,42.40947484970093L173.59263449999978,164.82028722763076L174.19786499999978,306.8910434842113L175.5812489999998,269.8557853698734L175.6677104999998,30.015065670013428L177.02227399999978,234.50171351432826L178.0598119999998,348.468147143722L178.17509399999977,130.78134894371044L178.4056579999998,265.17150759696995L179.47201649999977,165.74704408645647L180.53837499999977,205.10349392890953L180.7689389999998,250.2901381254199L181.6335539999998,-20.55942296981823L181.9793999999998,210.21164655685448L182.03704099999976,249.9565732479098L183.13221999999976,2.3320722579955486L183.47806599999979,248.62190067768125L184.68852699999977,217.18154907226585L186.64832099999978,196.26186549663564L186.9077054999998,249.25094127655055L186.99416699999978,-107.6148867607119L189.18452499999978,-129.9866771698001L189.2421659999998,82.38288640975958L189.2709864999998,260.7023841142657L190.79847299999975,309.47772026062046L191.60544699999977,-10.730568170547542L193.50759999999977,62.71421194076538L194.63159949999977,242.46095776557948L197.22544449999978,75.61225414276129L197.68657249999978,145.1992774009706L198.09005949999977,74.44582223892218L199.84810999999976,-6.647530794143734L200.48216099999976,298.2807850837711L202.58605749999975,194.82590556144734L202.64369849999974,194.40427124500295L203.56595449999978,198.28797578811665L204.25764649999977,157.76394248008742L204.66113349999978,135.4445230960847L205.90041499999975,256.49040937423734L206.76502999999974,155.51687002182024L206.88031199999978,57.87590026855469L207.31261949999973,-34.62620019912731L208.49425999999974,235.48508465290095L208.58072149999975,231.72482252120997L210.10820799999976,236.2035590410235L211.03046399999974,336.1723607778553L211.52041249999974,-19.377995729446468L211.60687399999975,-62.549669742584456L212.58677099999974,176.21914625167864L212.64441199999973,156.30934476852434L212.84615549999972,76.07488155364996L213.88369349999977,119.5834624767304L214.48892399999974,50.14511585235596L215.18061599999973,212.0751613378527L215.32471849999976,122.16726660728466L215.49764149999973,-134.30167913436912L216.27579499999973,239.2880922555926L216.85220499999977,194.2993289232256L216.99630749999974,160.89545190334334L217.42861499999975,152.55835771560683L217.57271749999975,148.0810606479646L218.81199899999973,269.64718997478514L220.05128049999973,176.01946294307726L220.33948549999974,230.59915840625789L221.78051049999974,151.50833368301406L222.32809999999975,56.618244647979736L222.70276649999974,262.91009068489103L222.87568949999974,-13.837656974792594L223.25035599999973,239.81995105743434L224.89312449999974,123.67986798286447L225.55599599999974,210.29693722724937L225.70009849999974,4.80437517166132L226.39179049999976,263.0217170715335L227.02584149999973,268.17934930324583L227.40050799999975,73.2530295848847L228.09219999999974,157.94806718826308L230.85896799999975,188.1641960144045L230.97424999999973,114.41345095634472L231.55065999999974,126.36353254318252L233.1069669999997,186.4427614212038L233.39517199999975,31.25765085220337L233.9427614999997,61.34335279464722L235.49906849999974,-22.226684093475455L235.75845299999972,191.25576376914998L236.1042989999997,63.91659259796148L236.19076049999973,207.0684212446215L236.62306799999973,-13.611049652099666L236.70952949999975,170.98271965980547L237.05537549999974,277.0724976062778L237.83352899999974,54.67766284942627L237.9488109999997,124.45862412452709L238.2658364999997,205.85680305957817L240.5426559999997,165.08812546730056L240.94614299999972,-103.17221164703398L241.17670699999968,225.32236456871058L241.6090144999997,107.96335339546215L243.4823469999997,-119.24786329269432L244.40460299999972,276.95245981216465L245.15393599999973,178.42024385929128L245.7879869999997,-30.84837675094616L248.4394729999997,110.94344496726995L248.6700369999997,88.44673514366156L249.8516774999997,177.43538320064565L251.6097279999997,172.42048203945177L252.50316349999972,183.01363587379473L254.03064999999972,272.3004883527759L254.34767549999972,253.97949159145384L254.8664444999997,122.02817797660839L255.15464949999966,159.26455259323137L255.1834699999997,29.692903757095337L255.7310594999997,137.27758407592785L256.39393099999967,249.78109776973753L256.9415204999997,234.79771494865443L258.0655199999997,95.14103889465338L258.1519814999997,126.51498794555675L258.3537249999997,181.02461338043233L258.6419299999997,311.1702907085422L258.7283914999997,136.20057344436657L259.1606989999997,66.88296556472784L260.1117754999997,69.12573218345648L260.6593649999997,-77.17109918594383L263.94490199999973,-5.598382949829158L264.4348504999997,286.6917306184772L264.8671579999997,186.85053944587725L265.1841834999997,393.87163855135486L265.3571064999997,225.60423433780696L266.3658239999997,114.30247545242321L266.8845929999997,288.9068222045902L267.2880799999997,100.01274585723883L267.8644899999997,147.08007812500017L268.09505399999966,262.93144464492826L268.3832589999997,239.48573529720332L269.3919764999997,65.56805729866028L269.5360789999997,105.4915761947633L271.2941294999997,319.1005112230782L271.3229499999997,26.641916036605835L272.24520599999965,130.77343821525588L273.94561549999963,189.47457313537618L274.9543329999997,236.11143410205867L275.2713584999997,176.95192754268666L275.6172044999997,71.8075692653656L276.1071529999997,201.05149865150472L279.3926899999997,171.20907664299028L279.50797199999965,227.15900540351893L279.91145899999964,193.44738602638265L280.40140749999966,150.9574866294862L280.57433049999963,190.4006540775301L282.2459194999997,172.24367976188677L282.5629449999997,265.3554195165637L283.62930349999965,146.12117767334001L283.7734059999997,61.042845249176025L283.83104699999967,217.03800439834617L284.00396999999964,165.42055130004897L284.66684149999963,172.93029844760912L284.81094399999967,196.19433641433736L285.0703284999997,202.12211310863518L287.66417349999966,104.45409417152416L287.75063499999965,263.59030067920713L288.5576089999997,245.2983683347705L288.70171149999965,179.97904539108293L288.8458139999997,118.40659141540539L290.51740299999966,117.15471863746649L291.26673599999964,184.76819038391133L291.52612049999965,143.4915113449098L292.47719699999965,373.12052264809654L292.50601749999964,250.65229177475004L292.76540199999965,240.3960198163989L293.8605809999996,311.7886230349544L294.09114499999964,92.18042373657232L294.2352474999996,181.08610928058644L297.29022049999963,166.54035747051256L297.80898949999965,22.658488750457707L297.89545099999964,288.30744057893787L298.50068149999964,80.3030157089234L298.81770699999964,270.96375048160587L299.50939899999963,226.7088824510577L299.71114249999965,67.50578522682196L300.2010909999996,151.9084763526918L300.25873199999967,-53.062753677368335L300.34519349999965,78.88186335563665L300.95042399999966,162.09768235683455L301.1521674999996,268.6497747898105L301.8150389999997,268.70932430028944L302.30498749999964,286.7933371663097L302.82375649999966,105.02667069435125L302.99667949999963,263.6364632844928L303.28488449999963,211.1837148666384L303.83247399999965,71.77222132682806L304.6106274999996,51.272995471954346L304.84119149999964,198.08595180511497L305.44642199999964,336.77971571683923L307.4926774999996,173.9635372161867L309.53893299999964,337.9771177470688L309.7406764999996,207.2460997104647L310.51882999999964,109.94954705238348L311.8733934999996,99.00215029716503L312.13277799999963,324.72729846835176L313.05503399999964,-15.219506025314388L313.66026449999964,280.16615569591556L314.89954599999965,218.79387319088005L314.98600749999963,71.45962238311773L315.56241749999964,215.21380543708824L315.76416099999966,242.83756852149992L316.51349399999964,198.52931559085866L318.5309289999996,83.94470453262335L318.7903134999996,1.527981758117619L318.99205699999965,162.18197166919725L319.36672349999964,99.55081939697277L320.00077449999964,44.34812903404236L320.3177999999996,316.40344411134754L321.0959534999996,212.1865248680117L321.7876454999996,177.06667065620442L321.9605684999996,76.50839447975164L322.6234399999996,195.52163660526298L323.14220899999964,259.47652161121397L325.1596439999996,5.593495368957463L326.4277459999996,110.903891324997L327.23471999999964,328.9738920331005L327.3211814999996,138.32355260849013L328.4740014999996,84.03237342834478L329.1656934999996,218.38291585445427L331.0390259999996,-4.278893470764217L333.2870249999996,89.49993848800665L333.4311274999996,197.5958871841433L333.51758899999965,188.20561468601247L334.2669219999996,76.11478567123419L334.9297934999996,188.77408564090746L335.5350239999996,-10.249665975570792L335.9961519999996,144.17719125747692L336.6878439999996,175.5456829071047L337.1777924999996,168.23058724403398L339.2240479999996,250.73546707630186L339.8004579999996,228.72584283351924L340.0022014999996,39.442726373672485L343.2589179999996,297.0719331502918L343.3453794999996,307.5407245755199L343.9506099999996,4.2815160751342205L344.0947124999996,273.7725535035137L345.6510194999996,203.19605708122276L345.9392244999996,189.64431583881398L346.05450649999955,176.04452192783373L346.89030099999957,-21.82188510894781L347.14968549999963,197.94180631637593L347.81255699999963,185.07252812385576L347.8413774999996,83.73111486434942L349.08065899999957,240.7077801227572L349.3400434999996,226.4264994859698L349.82999199999955,182.80748128891008L349.9740944999996,89.80319976806646L350.2334789999996,358.7627351284031L350.4640429999996,153.04051160812392L350.69460699999956,131.03601932525646L351.1845554999996,291.8579244613651L352.33737549999955,257.36460745334654L353.4037339999996,294.7962844371799L353.6631184999996,111.49704575538647L353.6919389999996,209.22815024852775L354.3259899999996,32.321743965148926L354.52773349999956,264.3556511402133L355.3347074999996,155.4854273796083L355.6229124999996,166.3350039720537L355.76701499999956,218.48744511604332L356.08404049999956,141.74183845520034L356.3434249999996,70.09737491607666L356.74691199999955,200.21507680416127L357.8420909999996,380.8747083321218L357.92855249999957,290.0033468008045L358.9084494999996,218.06800127029445L359.02373149999954,142.45866060256972L359.68660299999954,176.55654132366197L359.85952599999956,258.44480991363554L359.9171669999996,158.2809686660768L361.06998699999957,333.4183320403103L361.24290999999954,223.18567931652095L361.3005509999996,322.6840117573742L361.6175764999996,201.1601585149767L361.76167899999956,302.7378296852115L362.1651659999996,98.81744980812084L362.8856784999996,238.50288987159755L363.60619099999957,179.38824415206926L364.1537804999996,66.7824792861939L364.4131649999996,213.5566830635073L364.93193399999956,112.45619654655462L365.7100874999996,315.3105807304386L366.3729589999996,267.5656732916835L366.4305999999996,159.8963344097139L366.45942049999957,241.26860320568113L368.15982999999954,170.5305939912798L368.50567599999954,212.98453211784386L369.60085499999957,347.84588292241136L371.0707004999996,191.3702815771105L372.7422894999996,211.95811510086082L373.77982749999956,111.25228881835949L374.2697759999996,192.73499488830586L374.84618599999953,239.90139901638057L375.73962149999954,161.75221383571642L375.9990059999996,179.3604940176012L376.4889544999996,-2.2500419616699787L376.7195184999996,182.45430231094377L376.97890299999955,229.4515895843508L377.87233849999956,224.03995037078883L378.9963379999995,41.73030376434326L379.3421839999996,286.78287923336063L379.68802999999957,251.1842882633212L380.0050554999995,309.4787403941158L380.4085424999996,267.43435144424467L380.4661834999995,211.39696657657646L381.50372149999953,161.81108117103594L382.54125949999957,157.32882738113418L383.3194129999996,227.3701792955401L383.7517204999995,166.62220597267168L384.61633549999954,243.2074075937274L385.3080274999995,209.69450771808647L385.82679649999955,254.6772503852847L387.5560264999996,73.58750820159918L387.9306929999995,137.67737627029433L387.9883339999995,-191.65831565856968L388.5935644999995,261.61862671375303L388.73766699999953,169.8428487777712L389.1411539999996,31.35931372642517L389.4293589999995,238.4187382459643L389.57346149999955,251.9413775205615L389.7752049999996,201.2922626733782L390.32279449999953,290.43766081333195L390.6686404999996,322.7110734581951L393.46422899999953,-9.4031178951264L393.8965364999995,323.2663077116016L394.21356199999957,162.4888503551485L394.32884399999955,145.37614226341262L394.7899719999995,201.44538283348103L395.7410484999996,162.0589923858644L396.0004329999995,145.71570277214065L397.84494499999954,235.97156941890742L397.9314064999995,144.5119702816011L398.3925344999995,179.22064185142537L400.89991799999956,93.01069974899298L401.1593024999995,108.9021766185761L402.0527379999995,134.12996530532848L402.6867889999995,218.28777432441734L403.32083999999946,139.50615644454967L405.1941724999995,79.67028260231024L405.42473649999954,19.907557964324894L406.66401799999954,237.02265739440944L407.49981249999956,119.35390114784252L408.8255554999995,-68.63592386245745L409.6325294999995,218.13186287879967L411.33293899999956,191.76337718963643L411.79406699999953,235.46911299228694L412.68750249999954,215.78829705715202L413.52329699999956,301.0240805149082L414.24380949999954,242.67179369926478L414.38791199999946,267.17038720846205L414.7625784999995,151.18471980094924L415.3101679999995,297.6351219415668L416.54944949999947,70.14564037323004L417.12585949999954,306.0177716612819L418.79744849999946,103.77046704292309L419.28739699999954,229.85826611518883L420.0655504999995,232.62375414371516L420.0943709999995,243.42013359069853L420.32493499999947,244.19047832489042L420.6707809999995,244.5480257272723L421.01662699999946,233.8880062103274L421.4489344999995,211.36981725692772L421.56421649999953,311.8350672721866L422.0541649999995,251.78019642829923L423.09170299999954,214.56162095069908L423.5240104999995,168.40846598148363L423.8122154999995,240.26206314563777L423.89867699999945,180.9857231378557L424.2445229999995,146.45202636718764L424.2733434999995,6.880290508270264L424.38862549999953,318.24176847934757L425.1955994999995,290.3149506449703L425.94493249999954,135.8704757690431L427.3283164999995,272.6903983950618L428.36585449999944,203.0129212141039L429.89334099999945,64.9074113368988L430.0086229999995,198.56502652168294L430.58503299999944,238.08742642402675L431.99723749999947,216.10791802406334L432.83303199999943,201.55652105808278L434.0434929999995,315.84359735250507L435.5133384999995,280.6069722771648L435.9456459999995,100.35771369934088L436.1762099999995,63.635661602020264L436.34913299999954,154.05158281326308L437.7901579999995,221.7588192224505L437.87661949999944,118.79476785659801L437.9630809999995,129.61754560470592L438.3377474999995,267.52243340015445L439.1159009999995,305.39204806089435L439.8364134999995,237.79609382152583L440.0381569999995,254.9428856372836L440.6722079999995,301.6919425129894L441.65210499999944,163.0758339166643L442.6608224999995,30.40419340133667L443.3236939999995,291.5007776021961L443.41015549999946,154.25460815429705L443.78482199999945,252.50281393528013L445.31230849999946,283.2981532812122L445.8887184999995,173.0176293849947L445.97517999999945,66.38944625854498L446.23456449999946,271.2401190400127L446.26338499999946,158.094415664673L446.4363079999995,94.08310413360607L447.0127179999995,42.62191295623779L447.0703589999995,61.488399505615234L449.4336399999995,222.26021170616175L449.6065629999995,321.7460834980015L451.7681004999995,48.83165955543518L453.49733049999946,231.3708800077441L453.6702534999995,124.37060475349435L454.3331249999994,287.14315533638035L455.3994834999995,215.2175605297091L455.4283039999995,144.04491186141982L455.6012269999994,242.51816034317042L455.86061149999944,257.1669268608096L456.3505599999994,212.98788666725181L456.69640599999946,54.51501727104187L456.8693289999995,319.3473960459236L457.4457389999995,273.96645396947895L458.5697384999994,249.2558854818347L460.0107634999994,175.3955793380739L461.36532699999947,194.62847530841847L462.40286499999945,29.06720519065857L463.09455699999944,182.10429012775438L463.1810184999994,235.00144124031092L465.34255599999943,289.01936858892475L465.51547899999946,282.33969718217884L466.3800939999995,165.82617640495317L466.6394784999994,270.80415278673206L466.7547604999994,184.2995548248293L466.92768349999943,221.85118198394798L468.62809299999947,199.87612962722798L469.5791694999994,20.851237773895207L469.6079899999994,168.66541445255294L469.8385539999994,83.11019778251654L469.95383599999946,249.9666368961337L470.4437844999994,275.02804368734394L470.61670749999945,230.046321153641L471.51014299999946,160.93709588050856L472.2882964999995,291.39320045709644L472.83588599999945,212.24240064620994L473.75814199999945,139.86394166946423L473.78696249999945,248.39677035808592L473.8157829999995,191.20657205581685L474.5074749999995,156.55753135681167L476.7266534999995,145.0724053382875L478.54234499999944,168.1206381320955L479.75280599999945,161.4937508106233L479.8680879999994,233.56033682823207L481.13618999999943,195.4807311296465L481.68377949999945,82.07632064819342L482.7501379999995,88.45376968383795L483.6147529999994,236.36979699134852L483.8164964999994,159.87953662872332L484.10470149999946,326.7042639851574L485.2863419999994,179.0759706497194L485.7762904999994,114.42221283912664L485.9492134999994,249.46996331214933L486.15095699999944,266.828417181969L487.5055204999994,295.41434139013325L487.64962299999945,205.95533668994923L488.1107509999994,98.74755501747143L488.28367399999945,233.37462246418025L488.57187899999946,-17.339881658554134L489.0906479999994,222.68570125103022L489.5805964999994,60.445284843444824L489.63823749999943,201.088886857033L490.56049349999944,241.40016913414027L491.45392899999945,354.38680052757303L492.80849249999943,147.87665843963634L493.15433849999937,-67.34877824783348L493.4713639999994,128.60434651374828L496.2093114999994,161.81372225284593L497.2756699999994,282.28894710540806L497.9673619999994,127.0822322368623L498.22674649999936,104.3378615379334L498.3996694999994,256.31534695625334L498.8319769999994,206.37161374092122L499.7254124999994,150.41655302047744L499.81187399999936,281.1761692166332L500.35946349999944,269.5957389473918L500.90705299999945,115.01767039299023L504.1637694999994,367.32640691101597L504.3943334999994,108.25825333595282L504.5672564999994,242.15439200401335L505.2589484999994,289.755435585976L506.3829479999994,209.27492618560814L507.16110149999935,164.43421363830583L507.5069474999994,233.3956134319308L508.1121779999994,264.71598982811L509.81258749999944,78.63818287849432L510.18725399999937,335.4381275177006L510.47545899999943,148.0624353885652L510.5907409999994,207.2902595996859L511.9453044999994,254.3593817949298L514.0203804999994,335.7994456589226L514.6544314999994,161.08021497726455L514.8561749999994,301.2650385499004L515.1443799999994,109.0968155860902L515.7207899999994,152.86527395248427L516.4701229999994,197.72139489650746L517.4500199999993,233.97362232208278L517.7094044999994,185.041773915291L519.3233524999994,181.70275807380693L520.8796594999994,311.69647932052646L521.6289924999994,292.6043868064884L521.7730949999994,307.3653304576877L523.8193504999994,228.93624067306544L523.9346324999995,225.95613658428215L524.8568884999994,149.8021197319032L526.2690929999993,191.89525604248067L526.8455029999994,55.332175493240356L527.7677589999994,172.18804180622118L528.0559639999993,249.80379104614286L528.0847844999994,285.51630526781116L528.8052969999994,194.0363347530367L529.0646814999994,149.03548002243056L529.4681684999994,266.54694169759784L530.6786294999994,194.75519716739674L531.3991419999993,178.4943318367006L533.5606794999993,193.4180212020876L535.4916529999994,-68.00662040710466L536.3850884999994,398.34367066621826L537.3649854999993,63.48678469657898L537.3938059999994,273.14220488071476L538.0278569999994,210.48084914684318L539.1230359999994,285.19885599613224L539.2671384999994,119.48925971984875L539.4112409999994,243.03936719894438L540.4775994999993,157.60109663009658L540.7081634999994,50.808290243148804L541.1116504999993,346.55757792294065L541.4286759999994,228.94695520401027L541.9474449999993,359.7479744255547L542.0050859999993,320.3370162844662L542.6679574999994,235.35063982009913L542.6967779999993,213.18303883075737L542.7255984999994,290.93971669673954L542.8120599999994,201.89762115478538L543.3596494999994,177.8260129690172L544.3683669999994,240.8821415901187L544.8583154999993,178.77994418144246L545.2329819999994,312.7304065227512L545.2618024999994,187.284177541733L545.8670329999994,227.98855543136622L546.1552379999994,55.30501365661627L546.3858019999993,-181.10820770263706L546.6740069999994,182.72319197654744L548.0862114999994,127.97672033309951L548.3167754999993,252.72710561752348L548.4320574999994,248.22750329971342L549.2390314999993,202.3840433359148L549.6425184999994,109.10863161087048L549.8154414999993,143.54498386383068L550.2189284999994,204.42348420619984L550.4783129999994,256.24875664711027L550.6800564999993,253.11469376087217L550.7088769999993,175.37944495677965L550.8241589999993,89.53809022903448L551.5446714999994,290.38516461849247L551.8328764999994,175.39357662200945L551.9481584999994,108.58397006988531L552.4092864999993,149.5867526531221L552.8127734999994,170.12330412864705L553.8503114999994,145.80029249191296L554.0808754999994,171.91324412822743L554.3979009999994,166.5404701232912L555.8101054999993,284.68704938888584L555.8389259999993,95.2123105525971L555.9830284999994,285.1097413897518L556.7611819999994,303.0091100931171L557.8563609999993,237.69973814487483L561.0554364999994,195.3861904144289L561.3148209999994,207.44819879531883L561.7759489999993,138.88594031333935L561.8624104999993,237.92570710182216L562.1217949999993,89.011801481247L562.9287689999994,278.1870904564861L563.9086659999994,238.49368989467646L563.9374864999993,334.51995104551355L564.1968709999993,220.35495281219505L564.2833324999993,325.7419151067738L565.4073319999993,237.28603959083586L566.1278444999994,179.02309894561787L566.5601519999993,291.8156421184543L566.6177929999993,26.16321682929987L566.8483569999993,254.45946753025083L567.8858949999993,120.17171025276195L568.5775869999993,87.05221891403204L569.2116379999993,274.0943211317066L570.0186119999993,323.6519369482998L570.3644579999993,120.308896303177L571.5749189999993,171.1190170049669L571.6613804999994,334.75612446665804L572.8430209999993,46.0026478767395L573.0735849999993,177.60956943035143L575.4080454999994,258.79264414310484L575.4368659999993,116.25074267387396L577.9442494999993,228.5223543643954L578.1748134999993,179.32711124420183L579.4429154999993,145.25990962982192L579.4717359999993,316.601155996323L580.9415814999993,284.5662042498592L581.2009659999993,92.44843721389776L582.9590164999993,194.98031497001668L583.1607599999993,92.98080921173101L583.9965544999993,153.3770430088045L585.0629129999993,232.12969660758998L585.5528614999994,131.6465723514558L586.7633224999993,240.35495162010218L588.1467064999993,262.08890199661283L589.2995264999993,130.27724027633678L590.0200389999993,139.40118908882155L590.5676284999993,82.56615996360784L590.7117309999993,274.2310315370563L591.3746024999994,368.911506608129L591.5187049999993,247.4512755870822L591.6628074999993,279.6373009681705L592.0086534999994,263.0708086490634L592.6138839999993,188.33161056041737L593.9684474999992,102.90429234504705L594.5736779999993,184.85965192317983L595.6400364999993,91.19466185569769L596.1011644999993,183.31015050411244L597.3980869999994,196.87877714633962L597.7727534999992,162.27024137973802L598.8391119999993,153.2754802703859L599.0408554999993,255.59927582740812L599.1561374999993,250.85399031639128L599.8766499999992,256.1515873670581L600.6259829999992,162.01135277748122L602.9604434999993,10.075974464416504L603.0469049999992,152.8446710109712L603.1910074999993,300.6879433989528L604.6320324999994,263.6670923233035L605.2084424999993,238.2569187879565L605.6407499999993,94.87643003463751L605.7272114999993,280.0722908973697L605.7848524999993,255.6217437982562L606.3612624999993,230.53629815578486L606.5341854999992,214.7915828227999L607.1970569999993,-27.560617923736686L607.9175694999992,160.902711749077L607.9752104999992,185.4070943593981L608.3498769999993,254.58284735679655L609.5026969999992,260.3495305776599L609.6756199999993,302.5848597288135L610.0791069999993,167.44777560234087L610.3961324999992,321.497374325991L610.6555169999993,248.2084023952487L611.9812599999993,244.44176912307765L612.1830034999994,61.268626451492366L612.2982854999993,311.6218343377117L612.4712084999993,146.420032978058L613.6240284999993,272.4562746286395L614.1716179999993,161.27561748027816L614.9497714999993,254.44309532642393L615.6126429999993,244.30621027946498L617.6300779999992,143.25393915176403L617.9182829999993,191.14423751831075L618.2641289999992,353.2884030789141L618.7540774999993,264.06416833400755L619.2152054999992,289.5264562964443L619.4457694999993,270.01404374837904L619.7051539999992,138.05671572685253L619.9068974999992,272.5600904226306L621.0597174999994,300.1981416344646L621.4343839999992,111.61059975624096L621.5784864999993,295.9652698040012L621.7514094999993,236.15703344345118L621.8378709999993,299.16716217994724L624.0282289999993,286.34901583194767L624.0570494999993,188.40960383415242L624.1146904999993,280.06445527076755L625.3251514999993,150.8370482921602L625.4116129999993,302.04322516918216L626.3050484999992,211.20489358902L626.9390994999993,361.0810479521756L627.0832019999992,321.7859312891964L627.1696634999993,260.1222974061969L627.3137659999993,198.98872613906883L628.4954064999993,228.24423968791987L628.9277139999992,262.5445199012759L629.3600214999992,230.39801061153437L629.6194059999992,156.114355325699L629.6770469999992,363.98143298924015L630.2246364999993,152.34106302261367L630.8010464999992,243.2327669858935L631.0892514999992,243.41458857059504L631.4927384999992,279.20913279056583L631.5215589999992,-33.05158972740179L632.6743789999992,84.58785176277166L632.7320199999992,127.7801036834718L633.3660709999992,291.97272390127216L634.0289424999993,49.86491084098816L635.2105829999992,384.4607865810399L635.5852494999992,297.15843796730076L635.6140699999993,148.6582934856416L636.1616594999992,208.83394062519096L636.1904799999993,222.05324351787593L636.2481209999993,-77.61785507202165L636.3922234999993,287.3785996437076L636.7092489999992,64.50579166412354L638.8131454999992,66.90033912658691L639.8795039999992,225.45244097709678L639.9083244999993,147.58886814117446L640.3982729999992,150.5479311943056L640.5135549999992,192.5628238916399L641.5799134999993,256.1396086215976L642.4733489999993,275.6870499253276L642.5021694999992,259.05695259571104L642.5886309999992,356.3505981862549L642.6174514999992,303.090795874596L643.5973484999993,350.2935993671421L643.7414509999993,318.82008090615307L644.0008354999992,270.2782708406451L644.1449379999992,-5.5947279930115315L644.6925274999992,303.2053324580196L645.6436039999992,268.2747724652293L646.3352959999992,142.930099964142L646.3641164999992,223.56659591197993L647.4016544999993,93.51032733917242L648.4968334999992,369.8056027665739L649.6496534999992,188.03483307361623L649.8225764999993,370.4172314703469L649.8802174999992,242.65708625316645L649.9090379999992,136.33580684661877L650.4278069999992,146.1097872257234L650.8024734999992,226.94127261638667L651.0618579999992,261.4836311340335L651.1771399999992,147.2863078117372L653.0216519999992,174.86626148223897L654.8949844999993,292.6262602210048L655.5578559999992,142.74595022201552L656.0189839999993,257.68245100975065L656.5953939999993,123.87958884239208L657.9787779999992,96.48265838623053L658.0652394999992,168.32161068916338L658.2093419999992,286.3385015726093L660.1403154999992,223.56235265731834L660.6590844999993,288.96807402372394L662.8206219999993,155.45994281768813L663.9446214999992,201.81482136249565L663.9734419999992,305.1876458525661L664.9533389999992,190.2287209033968L665.7891334999993,163.38091015815752L666.1637999999992,298.4045279026035L666.4808254999992,238.2224094867709L667.0860559999992,218.2955223321917L667.6048249999992,333.7850669026379L668.0083119999993,257.10476756095915L668.4982604999992,211.95204436779045L668.8729269999992,215.13078033924126L669.7087214999992,264.42614674568205L669.7375419999992,271.1464232206348L670.9191824999992,278.3842140436176L671.6108744999992,182.7835613489153L671.7837974999992,137.4935519695283L672.3602074999992,315.297994911671L672.5331304999993,77.13178992271429L673.1383609999992,156.45927309989946L673.3112839999992,200.20396173000356L674.6658474999992,-123.07710647583036L675.0405139999992,283.50873887538944L676.7409234999992,286.449157893658L677.6631794999993,216.76213026046779L677.8649229999992,115.3481435775758L680.2858449999992,221.98262274265312L680.8622549999992,-29.672006368637142L684.0325099999992,232.4197649955752L684.7530224999992,171.36215925216692L684.8106634999992,315.37938654422794L685.1276889999992,223.08993697166466L685.9058424999993,347.6439653337006L686.1075859999992,21.914329528808594L686.4246114999992,234.39382970333125L686.5687139999992,210.28145372867607L686.7704574999992,245.9892302751544L686.7992779999992,209.0573185682299L687.2027649999992,-49.73188638687151L688.0097389999992,223.597950935364L689.7389689999992,221.4062285423281L689.9983534999992,68.92450928688055L690.0848149999993,142.14633703231823L691.0647119999992,99.74545836448675L691.2952759999991,210.5132430791857L692.2463524999991,318.17156389355694L692.3039934999993,236.51145160198237L692.4480959999992,231.04349851608302L693.3703519999991,42.95246124267578L693.9179414999992,134.19580459594738L695.9930174999992,146.89948320388808L696.0506584999993,112.35671162605297L696.4541454999992,317.76219308376346L697.4340424999992,244.39753413200407L699.5379389999991,240.34628987312342L699.7396824999992,267.17930555343656L700.0855284999992,141.7921566963197L701.0366049999992,314.6283492445949" fill="none"></path></g></g></g></g></g></g><g transform="translate(40, 378)" clip-path="url(#clip_1)"><clipPath id="clip_1"><rect width="749" height="22"></rect></clipPath><g><g><line x1="43.64099999999995" y1="0" x2="43.64099999999995" y2="5" style="visibility: inherit;" fill="rgb(0, 0, 0)" stroke="rgb(204, 204, 204)" stroke-width="1px"></line><line x1="101.28199999999987" y1="0" x2="101.28199999999987" y2="5" style="visibility: inherit;" fill="rgb(0, 0, 0)" stroke="rgb(204, 204, 204)" stroke-width="1px"></line><line x1="158.9229999999998" y1="0" x2="158.9229999999998" y2="5" style="visibility: inherit;" fill="rgb(0, 0, 0)" stroke="rgb(204, 204, 204)" stroke-width="1px"></line><line x1="216.56399999999974" y1="0" x2="216.56399999999974" y2="5" style="visibility: inherit;" fill="rgb(0, 0, 0)" stroke="rgb(204, 204, 204)" stroke-width="1px"></line><line x1="274.2049999999997" y1="0" x2="274.2049999999997" y2="5" style="visibility: inherit;" fill="rgb(0, 0, 0)" stroke="rgb(204, 204, 204)" stroke-width="1px"></line><line x1="331.8459999999996" y1="0" x2="331.8459999999996" y2="5" style="visibility: inherit;" fill="rgb(0, 0, 0)" stroke="rgb(204, 204, 204)" stroke-width="1px"></line><line x1="389.4869999999995" y1="0" x2="389.4869999999995" y2="5" style="visibility: inherit;" fill="rgb(0, 0, 0)" stroke="rgb(204, 204, 204)" stroke-width="1px"></line><line x1="447.1279999999995" y1="0" x2="447.1279999999995" y2="5" style="visibility: inherit;" fill="rgb(0, 0, 0)" stroke="rgb(204, 204, 204)" stroke-width="1px"></line><line x1="504.76899999999944" y1="0" x2="504.76899999999944" y2="5" style="visibility: inherit;" fill="rgb(0, 0, 0)" stroke="rgb(204, 204, 204)" stroke-width="1px"></line><line x1="562.4099999999993" y1="0" x2="562.4099999999993" y2="5" style="visibility: inherit;" fill="rgb(0, 0, 0)" stroke="rgb(204, 204, 204)" stroke-width="1px"></line><line x1="620.0509999999992" y1="0" x2="620.0509999999992" y2="5" style="visibility: inherit;" fill="rgb(0, 0, 0)" stroke="rgb(204, 204, 204)" stroke-width="1px"></line><line x1="677.6919999999992" y1="0" x2="677.6919999999992" y2="5" style="visibility: inherit;" fill="rgb(0, 0, 0)" stroke="rgb(204, 204, 204)" stroke-width="1px"></line><line x1="735.3329999999991" y1="0" x2="735.3329999999991" y2="5" style="visibility: inherit;" fill="rgb(0, 0, 0)" stroke="rgb(204, 204, 204)" stroke-width="1px"></line></g><g transform="translate(0, 8)"><text x="43.64099999999995" y="0" dx="0em" dy="0.95em" style="text-anchor: middle; visibility: inherit; font-family: &quot;Helvetica Neue&quot;, sans-serif; font-size: 12px; font-weight: 200;" fill="rgb(50, 49, 63)" stroke="none" stroke-width="1px">0</text><text x="101.28199999999987" y="0" dx="0em" dy="0.95em" style="text-anchor: middle; visibility: inherit; font-family: &quot;Helvetica Neue&quot;, sans-serif; font-size: 12px; font-weight: 200;" fill="rgb(50, 49, 63)" stroke="none" stroke-width="1px">2k</text><text x="158.9229999999998" y="0" dx="0em" dy="0.95em" style="text-anchor: middle; visibility: inherit; font-family: &quot;Helvetica Neue&quot;, sans-serif; font-size: 12px; font-weight: 200;" fill="rgb(50, 49, 63)" stroke="none" stroke-width="1px">4k</text><text x="216.56399999999974" y="0" dx="0em" dy="0.95em" style="text-anchor: middle; visibility: inherit; font-family: &quot;Helvetica Neue&quot;, sans-serif; font-size: 12px; font-weight: 200;" fill="rgb(50, 49, 63)" stroke="none" stroke-width="1px">6k</text><text x="274.2049999999997" y="0" dx="0em" dy="0.95em" style="text-anchor: middle; visibility: inherit; font-family: &quot;Helvetica Neue&quot;, sans-serif; font-size: 12px; font-weight: 200;" fill="rgb(50, 49, 63)" stroke="none" stroke-width="1px">8k</text><text x="331.8459999999996" y="0" dx="0em" dy="0.95em" style="text-anchor: middle; visibility: inherit; font-family: &quot;Helvetica Neue&quot;, sans-serif; font-size: 12px; font-weight: 200;" fill="rgb(50, 49, 63)" stroke="none" stroke-width="1px">10k</text><text x="389.4869999999995" y="0" dx="0em" dy="0.95em" style="text-anchor: middle; visibility: inherit; font-family: &quot;Helvetica Neue&quot;, sans-serif; font-size: 12px; font-weight: 200;" fill="rgb(50, 49, 63)" stroke="none" stroke-width="1px">12k</text><text x="447.1279999999995" y="0" dx="0em" dy="0.95em" style="text-anchor: middle; visibility: inherit; font-family: &quot;Helvetica Neue&quot;, sans-serif; font-size: 12px; font-weight: 200;" fill="rgb(50, 49, 63)" stroke="none" stroke-width="1px">14k</text><text x="504.76899999999944" y="0" dx="0em" dy="0.95em" style="text-anchor: middle; visibility: inherit; font-family: &quot;Helvetica Neue&quot;, sans-serif; font-size: 12px; font-weight: 200;" fill="rgb(50, 49, 63)" stroke="none" stroke-width="1px">16k</text><text x="562.4099999999993" y="0" dx="0em" dy="0.95em" style="text-anchor: middle; visibility: inherit; font-family: &quot;Helvetica Neue&quot;, sans-serif; font-size: 12px; font-weight: 200;" fill="rgb(50, 49, 63)" stroke="none" stroke-width="1px">18k</text><text x="620.0509999999992" y="0" dx="0em" dy="0.95em" style="text-anchor: middle; visibility: inherit; font-family: &quot;Helvetica Neue&quot;, sans-serif; font-size: 12px; font-weight: 200;" fill="rgb(50, 49, 63)" stroke="none" stroke-width="1px">20k</text><text x="677.6919999999992" y="0" dx="0em" dy="0.95em" style="text-anchor: middle; visibility: inherit; font-family: &quot;Helvetica Neue&quot;, sans-serif; font-size: 12px; font-weight: 200;" fill="rgb(50, 49, 63)" stroke="none" stroke-width="1px">22k</text><text x="735.3329999999991" y="0" dx="0em" dy="0.95em" style="text-anchor: middle; visibility: inherit; font-family: &quot;Helvetica Neue&quot;, sans-serif; font-size: 12px; font-weight: 200;" fill="rgb(50, 49, 63)" stroke="none" stroke-width="1px">24k</text></g><line x1="0" y1="0" x2="749.333" y2="0" fill="rgb(0, 0, 0)" stroke="rgb(204, 204, 204)" stroke-width="1px"></line></g></g></g></g></svg>