<svg viewBox="0 0 693.6666870117188 400" xmlns="http://www.w3.org/2000/svg"><g><g><g><g><g><line x1="60" y1="363.2727272727282" x2="55" y2="363.2727272727282" style="visibility: inherit;" fill="rgb(0, 0, 0)" stroke="rgb(204, 204, 204)" stroke-width="1px"></line><line x1="60" y1="328.9090909090919" x2="55" y2="328.9090909090919" style="visibility: inherit;" fill="rgb(0, 0, 0)" stroke="rgb(204, 204, 204)" stroke-width="1px"></line><line x1="60" y1="294.5454545454554" x2="55" y2="294.5454545454554" style="visibility: inherit;" fill="rgb(0, 0, 0)" stroke="rgb(204, 204, 204)" stroke-width="1px"></line><line x1="60" y1="260.1818181818189" x2="55" y2="260.1818181818189" style="visibility: inherit;" fill="rgb(0, 0, 0)" stroke="rgb(204, 204, 204)" stroke-width="1px"></line><line x1="60" y1="225.81818181818247" x2="55" y2="225.81818181818247" style="visibility: inherit;" fill="rgb(0, 0, 0)" stroke="rgb(204, 204, 204)" stroke-width="1px"></line><line x1="60" y1="191.45454545454606" x2="55" y2="191.45454545454606" style="visibility: inherit;" fill="rgb(0, 0, 0)" stroke="rgb(204, 204, 204)" stroke-width="1px"></line><line x1="60" y1="157.0909090909096" x2="55" y2="157.0909090909096" style="visibility: inherit;" fill="rgb(0, 0, 0)" stroke="rgb(204, 204, 204)" stroke-width="1px"></line><line x1="60" y1="122.72727272727317" x2="55" y2="122.72727272727317" style="visibility: inherit;" fill="rgb(0, 0, 0)" stroke="rgb(204, 204, 204)" stroke-width="1px"></line><line x1="60" y1="88.36363636363672" x2="55" y2="88.36363636363672" style="visibility: inherit;" fill="rgb(0, 0, 0)" stroke="rgb(204, 204, 204)" stroke-width="1px"></line><line x1="60" y1="54.00000000000023" x2="55" y2="54.00000000000023" style="visibility: inherit;" fill="rgb(0, 0, 0)" stroke="rgb(204, 204, 204)" stroke-width="1px"></line><line x1="60" y1="19.636363636363853" x2="55" y2="19.636363636363853" style="visibility: inherit;" fill="rgb(0, 0, 0)" stroke="rgb(204, 204, 204)" stroke-width="1px"></line></g><g transform="translate(50, 0)"><text x="0" y="363.2727272727282" dx="0em" dy="0.3em" style="text-anchor: end; visibility: inherit; font-family: &quot;Helvetica Neue&quot;, sans-serif; font-size: 12px; font-weight: 200;" fill="rgb(50, 49, 63)" stroke="none" stroke-width="1px">-1.15</text><text x="0" y="328.9090909090919" dx="0em" dy="0.3em" style="text-anchor: end; visibility: inherit; font-family: &quot;Helvetica Neue&quot;, sans-serif; font-size: 12px; font-weight: 200;" fill="rgb(50, 49, 63)" stroke="none" stroke-width="1px">-1.1</text><text x="0" y="294.5454545454554" dx="0em" dy="0.3em" style="text-anchor: end; visibility: inherit; font-family: &quot;Helvetica Neue&quot;, sans-serif; font-size: 12px; font-weight: 200;" fill="rgb(50, 49, 63)" stroke="none" stroke-width="1px">-1.05</text><text x="0" y="260.1818181818189" dx="0em" dy="0.3em" style="text-anchor: end; visibility: inherit; font-family: &quot;Helvetica Neue&quot;, sans-serif; font-size: 12px; font-weight: 200;" fill="rgb(50, 49, 63)" stroke="none" stroke-width="1px">-1</text><text x="0" y="225.81818181818247" dx="0em" dy="0.3em" style="text-anchor: end; visibility: inherit; font-family: &quot;Helvetica Neue&quot;, sans-serif; font-size: 12px; font-weight: 200;" fill="rgb(50, 49, 63)" stroke="none" stroke-width="1px">-0.95</text><text x="0" y="191.45454545454606" dx="0em" dy="0.3em" style="text-anchor: end; visibility: inherit; font-family: &quot;Helvetica Neue&quot;, sans-serif; font-size: 12px; font-weight: 200;" fill="rgb(50, 49, 63)" stroke="none" stroke-width="1px">-0.9</text><text x="0" y="157.0909090909096" dx="0em" dy="0.3em" style="text-anchor: end; visibility: inherit; font-family: &quot;Helvetica Neue&quot;, sans-serif; font-size: 12px; font-weight: 200;" fill="rgb(50, 49, 63)" stroke="none" stroke-width="1px">-0.85</text><text x="0" y="122.72727272727317" dx="0em" dy="0.3em" style="text-anchor: end; visibility: inherit; font-family: &quot;Helvetica Neue&quot;, sans-serif; font-size: 12px; font-weight: 200;" fill="rgb(50, 49, 63)" stroke="none" stroke-width="1px">-0.8</text><text x="0" y="88.36363636363672" dx="0em" dy="0.3em" style="text-anchor: end; visibility: inherit; font-family: &quot;Helvetica Neue&quot;, sans-serif; font-size: 12px; font-weight: 200;" fill="rgb(50, 49, 63)" stroke="none" stroke-width="1px">-0.75</text><text x="0" y="54.00000000000023" dx="0em" dy="0.3em" style="text-anchor: end; visibility: inherit; font-family: &quot;Helvetica Neue&quot;, sans-serif; font-size: 12px; font-weight: 200;" fill="rgb(50, 49, 63)" stroke="none" stroke-width="1px">-0.7</text><text x="0" y="19.636363636363853" dx="0em" dy="0.3em" style="text-anchor: end; visibility: inherit; font-family: &quot;Helvetica Neue&quot;, sans-serif; font-size: 12px; font-weight: 200;" fill="rgb(50, 49, 63)" stroke="none" stroke-width="1px">-0.65</text></g><line x1="60" y1="0" x2="60" y2="378" fill="rgb(0, 0, 0)" stroke="rgb(204, 204, 204)" stroke-width="1px"></line></g></g><g transform="translate(60, 0)" clip-path="url(#clip_0)"><clipPath id="clip_0"><rect width="633" height="378"></rect></clipPath><g><g><g><line x1="40.74361538461538" y1="0" x2="40.74361538461538" y2="378" fill="rgb(0, 0, 0)" stroke="rgb(60, 60, 60)" stroke-width="1px" opacity="0.25"></line><line x1="89.48723076923075" y1="0" x2="89.48723076923075" y2="378" fill="rgb(0, 0, 0)" stroke="rgb(60, 60, 60)" stroke-width="1px" opacity="0.25"></line><line x1="138.2308461538461" y1="0" x2="138.2308461538461" y2="378" fill="rgb(0, 0, 0)" stroke="rgb(60, 60, 60)" stroke-width="1px" opacity="0.25"></line><line x1="186.9744615384615" y1="0" x2="186.9744615384615" y2="378" fill="rgb(0, 0, 0)" stroke="rgb(60, 60, 60)" stroke-width="1px" opacity="0.25"></line><line x1="235.71807692307686" y1="0" x2="235.71807692307686" y2="378" fill="rgb(0, 0, 0)" stroke="rgb(60, 60, 60)" stroke-width="1px" opacity="0.25"></line><line x1="284.46169230769226" y1="0" x2="284.46169230769226" y2="378" fill="rgb(0, 0, 0)" stroke="rgb(60, 60, 60)" stroke-width="1px" opacity="0.25"></line><line x1="333.20530769230766" y1="0" x2="333.20530769230766" y2="378" fill="rgb(0, 0, 0)" stroke="rgb(60, 60, 60)" stroke-width="1px" opacity="0.25"></line><line x1="381.948923076923" y1="0" x2="381.948923076923" y2="378" fill="rgb(0, 0, 0)" stroke="rgb(60, 60, 60)" stroke-width="1px" opacity="0.25"></line><line x1="430.6925384615384" y1="0" x2="430.6925384615384" y2="378" fill="rgb(0, 0, 0)" stroke="rgb(60, 60, 60)" stroke-width="1px" opacity="0.25"></line><line x1="479.4361538461538" y1="0" x2="479.4361538461538" y2="378" fill="rgb(0, 0, 0)" stroke="rgb(60, 60, 60)" stroke-width="1px" opacity="0.25"></line><line x1="528.1797692307691" y1="0" x2="528.1797692307691" y2="378" fill="rgb(0, 0, 0)" stroke="rgb(60, 60, 60)" stroke-width="1px" opacity="0.25"></line><line x1="576.9233846153845" y1="0" x2="576.9233846153845" y2="378" fill="rgb(0, 0, 0)" stroke="rgb(60, 60, 60)" stroke-width="1px" opacity="0.25"></line><line x1="625.6669999999999" y1="0" x2="625.6669999999999" y2="378" fill="rgb(0, 0, 0)" stroke="rgb(60, 60, 60)" stroke-width="1px" opacity="0.25"></line></g><g><line x1="0" y1="363.2727272727282" x2="633.667" y2="363.2727272727282" fill="rgb(0, 0, 0)" stroke="rgb(60, 60, 60)" stroke-width="1px" opacity="0.25"></line><line x1="0" y1="328.9090909090919" x2="633.667" y2="328.9090909090919" fill="rgb(0, 0, 0)" stroke="rgb(60, 60, 60)" stroke-width="1px" opacity="0.25"></line><line x1="0" y1="294.5454545454554" x2="633.667" y2="294.5454545454554" fill="rgb(0, 0, 0)" stroke="rgb(60, 60, 60)" stroke-width="1px" opacity="0.25"></line><line x1="0" y1="260.1818181818189" x2="633.667" y2="260.1818181818189" fill="rgb(0, 0, 0)" stroke="rgb(60, 60, 60)" stroke-width="1px" opacity="0.25"></line><line x1="0" y1="225.81818181818247" x2="633.667" y2="225.81818181818247" fill="rgb(0, 0, 0)" stroke="rgb(60, 60, 60)" stroke-width="1px" opacity="0.25"></line><line x1="0" y1="191.45454545454606" x2="633.667" y2="191.45454545454606" fill="rgb(0, 0, 0)" stroke="rgb(60, 60, 60)" stroke-width="1px" opacity="0.25"></line><line x1="0" y1="157.0909090909096" x2="633.667" y2="157.0909090909096" fill="rgb(0, 0, 0)" stroke="rgb(60, 60, 60)" stroke-width="1px" opacity="0.25"></line><line x1="0" y1="122.72727272727317" x2="633.667" y2="122.72727272727317" fill="rgb(0, 0, 0)" stroke="rgb(60, 60, 60)" stroke-width="1px" opacity="0.25"></line><line x1="0" y1="88.36363636363672" x2="633.667" y2="88.36363636363672" fill="rgb(0, 0, 0)" stroke="rgb(60, 60, 60)" stroke-width="1px" opacity="0.25"></line><line x1="0" y1="54.00000000000023" x2="633.667" y2="54.00000000000023" fill="rgb(0, 0, 0)" stroke="rgb(60, 60, 60)" stroke-width="1px" opacity="0.25"></line><line x1="0" y1="19.636363636363853" x2="633.667" y2="19.636363636363853" fill="rgb(0, 0, 0)" stroke="rgb(60, 60, 60)" stroke-width="1px" opacity="0.25"></line></g></g></g><g><g><line x1="0" y1="-427.09090909091003" x2="633.667" y2="-427.09090909091003" fill="rgb(0, 0, 0)" stroke="rgb(153, 153, 153)" stroke-width="1.5px"></line></g></g><g><g><line x1="40.74361538461538" y1="0" x2="40.74361538461538" y2="378" fill="rgb(0, 0, 0)" stroke="rgb(153, 153, 153)" stroke-width="1.5px"></line></g></g><g><g><g><g><g><path stroke="rgb(255, 112, 67)" stroke-width="2px" d="M41.62100046153846,17.88330615650534L41.91346215384615,39.981578856141425L42.790847230769224,59.06024405710775L42.93707807692307,71.7289050520045L43.473257846153835,76.47756585487338L44.20441207692307,88.43652341901748L44.35064292307692,98.62680958154567L45.32551523076923,100.78156189365563L48.29887576923076,101.38887989298655L48.44510661538461,101.06324369652026L48.88379915384614,100.80344205297479L49.663697,104.64159710394165L49.761184230769224,108.20806056464369L51.90590330769229,111.351552204928L52.14962138461537,112.82245188588507L53.1732373076923,116.03204994067869L53.41695538461537,115.95650346956972L53.75816069230768,119.02800325877183L54.05062238461537,119.10423575864002L55.75664892307691,120.84733163740754L55.85413615384614,121.14246437242753L56.244085076923064,117.82593184446836L57.26770099999999,118.01224432123183L57.65764992307691,118.73109870816319L58.63252223076921,112.65578595042109L61.26467746153845,118.95195811822668L61.31342107692306,121.78958289687864L62.28829338461537,121.0583669158541L62.43452423076922,123.72927673479501L63.16567846153845,124.65755916612608L63.3119093076923,125.82753253804262L63.360652923076906,127.54261072962879L63.84808907692306,129.39570334043856L64.77421776923076,123.09535360477071L65.79783369230768,122.66624479005867L66.87019323076922,121.17799715672277L68.18627084615383,118.9321594399002L68.67370699999998,120.03565851829137L68.96616869230768,120.72553829403716L69.30737399999998,114.62267355843466L69.3561176153846,118.28339106536856L70.9646569230769,122.47258432288629L71.64706753846151,122.064723404304L71.98827284615383,123.0337851167696L72.03701646153844,120.94148723590541L72.13450369230767,123.77352831192542L72.28073453846152,128.05978463534916L72.37822176923075,127.32713605630039L72.96314515384614,126.88795916804045L73.45058130769229,127.97916994806147L75.54655676923076,130.61963170520903L75.93650569230768,130.66267066823517L76.3264546153846,130.88866179443528L77.39881415384613,133.9200195374975L77.5937886153846,134.65148028051442L78.03248115384613,132.16023397076788L78.2274556153846,136.57437859167803L78.32494284615383,136.3216139978364L78.76363538461537,140.47661109300952L79.00735346153844,140.52226417416912L79.10484069230768,141.8658734083758L79.34855876923075,143.00995037121027L79.44604599999997,144.16419410130052L79.64102046153845,143.4282286467464L79.83599492307691,145.3569856367022L80.1284566153846,147.7202156677748L80.17720023076922,145.12913041570286L81.29830338461537,143.77987023357824L81.49327784615382,145.79012163722513L83.10181715384613,138.72497427921704L83.44302246153845,142.77589177710018L83.73548415384613,140.12874450467643L84.95407453846151,137.86074302618246L85.05156176923076,137.50295155550842L85.44151069230767,136.75953166708933L86.12392130769229,135.19365056300163L86.66010107692306,134.6632240680459L86.80633192307691,133.91696367626213L87.24502446153845,130.2663535658124L87.63497338461536,127.59621325378768L88.0736659230769,131.12230586134518L88.12240953846151,134.86253523548382L88.41487123076921,134.49940609666956L88.46361484615383,135.85172696492648L88.70733292307689,136.2361450292545L89.58471799999998,134.1806993490908L89.73094884615382,133.8508376269972L90.16964138461536,131.29578092856866L92.55807853846152,134.2192155539256L92.70430938461537,135.68873807939084L92.80179661538459,135.7262762879153L92.99677107692305,138.92840640765596L93.28923276923075,136.68007869029074L93.53295084615384,142.15594158912316L94.02038699999997,136.38402235236933L94.31284869230768,134.65675335451067L94.55656676923074,135.4789317489176L95.0440029230769,132.15258341887895L97.09123476923075,136.8148262822653L97.28620923076922,140.75309874890206L97.33495284615381,144.7047071051913L97.38369646153843,144.45932052607463L98.26108153846151,143.91585495495985L98.89474853846151,143.67795179412414L99.52841553846152,144.01470132624058L101.38067292307692,137.83425289613885L101.91685269230767,135.39443423986336L102.06308353846151,135.60756386209744L102.20931438461535,136.34801007058286L103.18418669230766,137.1201873864922L103.47664838461536,139.42011576884195L103.81785369230766,141.04596995217062L104.8902132307692,145.2917641552257L105.03644407692305,145.2926771129614L105.57262384615383,145.82042835741686L105.71885469230767,143.1525243800398L105.86508553846151,141.09905983796082L105.91382915384614,143.85124076334574L108.25352269230767,141.44906405934992L108.39975353846152,147.1260775754854L108.54598438461537,145.42111611698292L108.59472799999999,146.41192265400323L109.66708753846152,146.2729674766658L110.2520109230769,143.58907162983215L110.73944707692306,142.662303991484L110.93442153846152,137.74385465771047L112.1530119230769,139.23742655620515L112.20175553846153,141.8471065001625L112.73793530769228,139.4386223186598L113.12788423076921,140.57046031000988L113.42034592307691,144.6612043682523L114.9801416153846,146.26687812674527L115.17511607692306,147.3475775133473L116.39370646153844,152.39864785931533L117.17360430769229,152.6823634955194L117.22234792307688,154.30440390332586L117.95350215384613,157.62951574250462L118.1484766153846,158.73371001198484L118.92837446153844,162.60064688746934L118.97711807692305,162.22654773169342L120.04947761538457,160.94728987220773L120.53691376923074,162.17597902838347L120.68314461538458,160.09774058754974L120.92686269230767,157.47818768542697L121.0730935384615,157.34019016292038L122.04796584615383,151.87924826938342L122.73037646153843,154.89817303365285L123.16906899999998,155.67605944875066L123.36404346153843,157.62032146547315L123.46153069230768,156.73474249406237L123.5590179230769,150.88188217293964L123.70524876923074,152.1461931372722L124.04645407692306,148.83386193237797L124.48514661538458,152.22490164847014L125.1675572307692,152.7806475705049L125.26504446153842,153.07687763162127L125.41127530769228,151.73809742727306L125.65499338461537,152.80617723537287L125.80122423076921,154.59187759025315L125.8499678461538,156.1107792675705L126.82484015384613,155.0890858782259L127.26353269230765,153.61158439168014L127.55599438461536,151.83840317922937L127.94594330769227,151.76603773262224L128.3846358461538,152.1556373434157L128.72584115384612,154.15905027630066L129.74945707692305,155.75827344662173L129.94443153846152,157.19463033974668L130.43186769230766,158.15319886834783L130.62684215384613,151.50748837607202L131.06553469230766,151.66516403373646L131.69920169230767,152.8875223090263L131.8454325384615,150.35719612743952L132.1378942307692,152.92054899861378L132.23538146153842,150.27036499146698L134.18512607692304,146.29342812212266L135.0137675384615,150.93841311470152L135.50120369230766,158.28169075245472L135.6474345384615,159.11989979368252L135.74492176923073,159.91153384952662L136.62230684615383,166.280550581981L137.30471746153842,168.1322879092061L137.40220469230766,166.4189211671774L138.27958976923074,167.80562264640037L138.4745642307692,170.10618174486646L138.8645131538461,166.87412695460915L139.69315461538457,164.3407646178673L139.98561630769228,165.08340133083664L141.15546307692304,164.32808615400637L141.78913007692304,164.5996189844387L141.9353609230769,165.0958082092269L141.9841045384615,168.98363406724897L142.17907899999997,167.33126005872026L142.37405346153844,162.4006353820079L142.5690279230769,161.5773532014176L142.9102332307692,160.58875563562694L143.64138746153844,163.34902222751296L145.29867038461535,162.56092970656945L145.4936448461538,163.51503840240477L145.83485015384613,161.8995158961066L146.27354269230764,159.86261393730683L147.34590223076918,161.1882019120972L147.44338946153843,161.70488217463995L147.54087669230765,164.29538878385713L147.93082561538458,161.92422103690774L148.3207745384615,161.9488026549545L148.51574899999997,164.17869014138233L149.49062130769227,158.5099805005752L149.73433938461534,156.7249726636043L149.78308299999998,154.26271876832647L149.8805702307692,154.44841262403537L150.02680107692305,151.47693741353606L150.27051915384612,150.63953989694957L150.61172446153844,152.64646126875346L150.75795530769227,152.22257147796617L151.00167338461534,156.37042776897354L151.92780207692303,154.3921206891584L152.4152382307692,156.23320500492628L152.7076999230769,156.0219337459314L153.00016161538457,148.57802012015804L153.19513607692303,151.89493615880355L153.78005946153843,157.17935761371882L153.82880307692304,159.24068603075125L155.04739346153843,158.6963452519249L155.48608599999994,158.64141613963238L157.19211253846152,159.66259523157325L157.24085615384612,160.56471416883238L157.33834338461534,160.18856724465272L159.4830624615384,160.13761252653475L159.87301138461535,162.41364030133454L160.21421669230764,157.75149578301102L160.3117039230769,163.80710844811318L160.40919115384614,165.66821705082072L160.6529092307692,169.89835346301012L161.87149961538458,171.8402073167221L161.92024323076922,171.71224307585487L162.40767938461534,170.6689792213107L162.50516661538458,171.7941945188823L162.74888469230766,173.0788910044608L163.43129530769227,171.94453027297845L163.72375699999998,166.27752371454008L164.16244953846152,165.34640312258682L164.89360376923074,165.48105389242795L165.0885782307692,165.98915165968899L165.18606546153842,166.53917511757564L166.4046558461538,169.1416120886595L167.47701538461536,172.72836103283908L167.76947707692304,174.40266870351388L168.59811853846148,169.2512071173011L168.8905802307692,171.7924378984058L168.9393238461538,169.22597583979177L169.6217344615384,169.74197873366452L170.15791423076917,165.5603206760751L171.27901738461534,167.9008433306557L171.62022269230766,167.94666290702278L171.86394076923074,167.31320017398713L172.49760776923074,166.33698951140278L172.83881307692303,176.74060519540436L173.56996730769228,180.18915140860395L174.15489069230767,180.63293726181243L174.3011215384615,177.91271545332984L174.9835321538461,174.69043522628834L176.68955869230766,173.31896643658894L176.73830230769227,175.16020227156693L176.78704592307687,174.91991312855717L177.66443099999995,181.02029595549553L178.39558523076917,179.26405330943993L180.73527876923075,177.23791358337533L181.17397130769226,180.2424369037858L181.61266384615382,179.42955410290043L181.9051255384615,176.24215881368187L182.92874146153844,172.7843116682251L183.02622869230763,174.53522613873L183.07497230769226,171.69515679799136L185.3659222307692,170.96188270450352L185.75587115384613,170.42947872670337L186.87697430769225,173.1997594333652L187.51064130769225,172.3910583614102L188.2905391538461,173.15622197201333L188.43676999999994,170.9554255175141L188.8267189230769,171.08069196551585L188.97294976923072,172.27717852158818L190.1427965384615,172.7865220788944L190.33777099999995,174.65277735959162L190.4352582307692,173.08213027566407L191.80007946153842,173.70636596928009L192.92118261538457,176.7055309388967L193.6523368461538,179.31522020655396L194.5297219230769,182.75394807926335L194.82218361538457,187.74470134512342L195.6020814615384,185.82984741695074L196.47946653846148,183.06932465794887L196.5282101538461,183.9519967676164L196.8694154615384,188.16207785854485L197.01564630769226,185.75009818930704L198.18549307692302,180.6540413798959L198.67292923076917,178.12396769990048L198.81916007692303,184.69302105294398L198.86790369230766,182.66893431292849L198.96539092307688,182.23004785190207L199.0141345384615,181.49591462142035L200.23272492307686,181.54915798031283L201.84126423076918,180.3233966215847L202.2312131538461,184.59197804739824L202.91362376923072,186.88386671807928L202.96236738461533,187.0752868117263L203.7910088461538,185.0841458024639L205.20457369230766,184.54687121348056L205.30206092307685,185.72323473410486L205.78949707692303,186.64305880895438L206.6181385384615,184.06921346275007L206.86185661538457,184.82548024594234L207.9342161538461,186.80019434680912L208.32416507692304,190.70816834672885L208.8603448461538,192.7469390384173L208.95783207692304,191.76684942180262L209.29903738461536,194.84428495366404L209.59149907692304,200.12345793643775L209.93270438461536,200.14923895416527L210.22516607692305,201.4264570099728L210.37139692307687,202.25049974868423L211.20003838461534,205.34536141162226L211.78496176923073,207.30577367720005L211.93119261538456,205.95011670045224L213.05229576923074,201.85546319939843L213.14978299999993,202.4409532761631L213.44224469230764,196.88259194207723L213.6372191538461,196.92811247700934L214.41711699999993,194.70708705741959L215.24575846153843,192.95898336138467L216.2206307692307,193.8434320844712L217.0980158461538,190.2035861515316L217.19550307692302,189.0442201314528L217.29299030769226,187.99010435800128L217.43922115384612,189.7214761240423L217.58545199999995,191.21156408023447L218.41409346153844,194.08798315516424L218.9502732307692,187.89400022150232L219.6326838461538,187.03041954662936L221.1924795384615,186.06045555046418L222.36232630769226,187.2865930080241L222.55730076923072,186.2916106457877L222.65478799999994,182.86068086912388L222.94724969230765,183.3946394458337L223.0934805384615,184.79288133480594L223.97086561538458,187.27211461859224L224.60453261538458,192.94290025721995L224.9944815384615,190.24730896103313L225.62814853846146,193.62852108209253L225.87186661538456,193.72318877802064L226.6517644615384,190.95045282152566L226.89548253846147,190.24485648748353L226.9929697692307,188.16344476797266L227.4804059230769,184.72098184723245L227.67538038461532,185.27787253350152L229.08894523076916,186.27061695868437L229.33266330769226,187.73509163533348L229.67386861538458,187.05012789344306L231.81858769230766,193.96446160636032L232.2085366153846,192.2560613726103L232.54974192307685,189.663092536096L232.74471638461534,183.7984686106776L233.2808961538461,182.87522375510693L233.57335784615378,188.2242850898543L233.86581953846147,190.1262671598242L234.93817907692303,182.18453608883092L235.4743588461538,186.26566371383706L235.71807692307686,187.54923526461425L236.1567694615384,187.41392244801378L236.20551307692304,187.32983644033675L236.7904364615384,188.1456942197911L237.32661623076916,193.91043861854826L237.47284707692305,197.75311463608912L240.2512331538461,199.74350179807138L240.49495123076917,201.78068272610426L240.54369484615378,202.15216083311688L241.03113099999993,204.8276936145387L244.58941492307687,204.5848862127262L245.12559469230763,205.3013193617026L245.17433830769224,206.0221926646809L245.27182553846148,200.68821149877897L245.36931276923073,198.36458645437307L245.51554361538456,198.56461995529122L245.56428723076917,199.8774846098188L246.78287761538456,205.08675551255064L247.02659569230764,204.4996477800799L247.1728265384615,201.66972973191054L247.56277546153842,205.1996615245444L248.5376477692307,203.477417453416L248.68387861538457,206.61939950058795L248.73262223076918,211.00225335932112L249.4637764615384,207.8843499444027L250.24367430769226,208.62282687486805L250.53613599999994,209.3094199134492L250.73111046153838,211.74804362615342L251.16980299999994,212.8263403638745L251.2672902307692,217.47503901209507L251.7059827692307,214.32430416229906L251.9009572307692,208.95974340818609L252.43713699999995,208.46603365774266L253.70447099999996,206.29710208153162L254.1431635384615,210.38671254180088L254.87431776923071,208.8210169807659L255.215523076923,209.0614072504161L255.50798476923072,204.54434630270285L255.70295923076918,199.21615412010885L255.75170284615376,204.56508871321677L256.6778315384615,203.95599861038184L256.82406238461533,207.35431769930926L258.5788325384615,208.54967238556097L258.87129423076914,206.72036959795795L259.6024484615384,213.29194972256457L259.69993569230763,214.55556670900245L260.5285771538461,211.01978507612958L260.5773207692307,205.84313352195088L261.5034494615384,206.59322543235533L261.552193076923,203.67249079570294L261.69842392307686,203.97939253228395L262.1371164615384,202.95969702169896L262.67329623076915,202.75945176960875L263.8918866153845,200.77148118331306L264.0381174615384,203.80206781671282L264.57429723076916,201.10649878737053L264.720528076923,199.58535955882584L264.81801530769224,198.7789734552862L264.91550253846145,192.82112548195045L266.3290673846153,199.5189191999404L267.35268330769225,208.7969481854825L267.69388861538454,214.71770729275798L268.08383753846147,220.1807270120937L268.2788119999999,222.28525700054763L268.62001730769225,223.07980117947528L268.66876092307683,224.58953234953972L268.71750453846147,225.72245285865284L269.2049406923077,225.84723733959584L270.4722746923076,220.26425567045013L270.7159927692307,217.7810786463326L271.49589061538455,212.893901572768L272.0320703846153,213.54671194182447L272.2270448461538,213.45693637740195L272.2757884615384,216.87701650597322L272.6657373846153,220.8243399680556L272.95819907692305,215.32727256248808L273.10442992307685,216.2254102590178L273.5431224615384,215.08134222830788L273.73809692307685,215.57886079238185L274.07930223076914,209.30511985411368L274.1280458461538,208.95341870575328L274.4205075384615,210.61222982970793L274.71296923076915,208.34664823049764L274.8104564615384,210.99490138938214L274.9566873076922,208.48775753388546L276.6627138461538,214.3872426332168L277.24763723076916,212.25807426431868L278.17376592307687,212.92777712074215L279.294869076923,214.02984197710833L280.2697413846153,209.27498244108082L281.43958815384605,214.04767200405072L282.21948599999996,213.06964940064827L282.6094349230769,213.90839965145406L283.0481274615384,210.55142638733764L283.19435830769226,211.3811047412234L283.2918455384615,213.63036463731103L283.34058915384605,216.5487128264535L285.4853082307692,219.19468742435086L285.77776992307685,223.12558427355074L285.9240007692307,223.5046160725541L286.265206076923,221.00982693593951L286.898873076923,218.14887570825397L286.99636030769227,217.53372498318666L287.04510392307685,217.23234378145168L287.3863092307692,215.48189797925878L288.2636943076923,219.90346991081785L289.62851553846144,222.12525470722895L290.6033878461538,224.2048252880247L290.700875076923,225.0116673710234L290.9933367692307,228.78307502395154L292.2606707692307,229.2824146240196L292.50438884615374,225.9470493119683L293.33303030769224,224.05643006990886L294.2104153846153,226.27452157829512L294.60036430769225,230.03689904358401L296.1114163846153,232.72810284367677L297.4274939999999,235.77460214980695L298.54859715384606,230.8554409518131L299.9621619999999,234.6784477076964L300.4983417692307,233.08967850145382L301.27823961538456,230.15321296694447L301.96065023076915,228.39983063903423L302.0093938461538,225.87528318176908L302.9842661538461,233.87153672096943L304.9340107692307,240.02459726556202L305.8601394615384,245.1567893424609L306.00637030769224,234.19880764582896L306.2500883846153,231.10142031414117L308.0536021538461,233.92316307453544L308.3948074615384,233.9674176142724L308.5897819230768,229.48706338013943L308.88224361538454,231.96912588378052L309.17470530769225,235.0915620370908L309.5646542307692,239.49951882597486L309.6621414615384,240.4535156626498L310.8319882307692,239.5189449849832L311.22193715384606,238.63507653686202L312.05057861538455,237.9604871893382L312.39178392307684,238.76987811578607L312.97670730769227,242.78511639088902L313.0741945384615,241.69233394168018L313.3666562307692,243.97121229818643L313.95157961538456,245.7954282753918L314.19529769230763,244.63917442506792L314.6827338461538,245.11681895484315L315.1701699999999,241.14490825846724L316.53499123076915,238.15414393405425L316.63247846153837,234.73918467828693L316.82745292307686,233.22106115185096L317.5586071538461,235.8824318146959L319.55709538461525,232.14730862566273L319.70332623076916,233.60791338645092L320.58071130769224,232.8815460078764L321.45809638461526,234.07237145747985L322.28673784615376,240.42934733518993L322.4329686923076,247.49202059672575L322.6766867692307,248.56827414361788L322.92040484615376,248.01572616879244L323.7977899230769,247.4395064593344L323.8465335384615,248.24319175051605L324.6751749999999,251.35980689276067L324.82140584615377,252.4257432887066L325.1626111538461,253.81272962417825L326.47868876923064,250.55247524107637L326.5761759999999,251.29643135466307L326.91738130769227,251.30577653000228L327.7947663846153,253.52811090605098L328.23345892307685,254.60903154369873L328.6721514615384,248.8481279369544L329.1595876153845,247.50181306586435L329.6957673846153,250.9292405225724L329.93948546153837,248.00990743298942L330.865614153846,248.9401161015091L331.10933223076916,253.52529878027423L331.2068194615384,253.11203767384302L331.40179392307687,252.688417030793L331.8404864615384,246.458223938986L332.71787153846145,244.05986301177475L333.6927438461538,242.09894009912242L333.9364619230769,242.70959958814979L334.3751544615384,238.83902832160612L334.66761615384604,238.32078703973193L334.91133423076917,240.13801928247713L335.057565076923,238.53277475023458L336.12992461538454,237.2262935899192L337.0073096923076,236.99001643174074L337.20228415384605,239.57947957098435L337.4460022307692,243.37851127661497L338.22590007692304,246.56876420659864L338.32338730769226,249.45475613564201L339.10328515384606,247.95313013571368L339.2007723846153,247.9230691695151L339.49323407692304,249.1389665694312L339.59072130769226,248.06290142677977L339.6882085384614,249.0709823592371L340.2731319230768,255.3039569448183L340.37061915384606,266.3635603606713L340.4681063846153,266.432030185868L341.58920953846143,266.7743613858465L342.027902076923,264.4381264251012L342.1741329230768,265.3637608146568L342.95403076923066,266.6620111765021L343.49021053846144,266.9742546186785L343.58769776923066,272.071670045831L343.8801594615384,266.22039350467446L344.51382646153843,267.66532241846454L344.75754453846145,268.2161291613452L345.39121153846145,267.49089024248866L347.29221253846146,264.666529793332L348.4133156923076,265.0273067166999L348.60829015384604,265.45767850553733L348.6570337692307,267.6569595287748L348.998239076923,265.9536139214085L349.82688053846147,269.3755336477881L350.3630603076922,262.49984892940495L350.899240076923,261.23215881406577L351.2404453846153,261.6543849869762L351.532907076923,261.31858988086293L352.70275384615377,258.2851599325236L355.3836526923076,260.2354357126363L355.57862715384607,259.455362646572L356.2122941538461,249.85386083868443L356.9434483846153,249.58238075876864L357.3333973076922,248.40773723768794L357.3821409230768,245.05384546574402L357.5771153846153,245.83051322751427L358.06455153846144,244.78125517498546L358.5519876923076,243.95336222535468L358.60073130769223,251.24049818133008L358.6494749230768,254.96709454728813L359.03942384615374,262.9329060637212L360.0142961538461,263.8454378379764L361.1841429230768,266.7768512580176L361.52534823076917,268.24787644501623L361.67157907692297,267.42902636779735L362.15901523076917,267.277497736358L362.5977077692307,271.1701453189785L362.74393861538454,272.2856691508301L363.2313747692307,268.94815792859663L363.47509284615376,269.40481563387885L365.22986299999997,276.7384961714964L365.6685555384615,280.73564699220435L365.7660427692307,278.8453810254553L365.96101723076913,276.92981696537333L366.25347892307684,280.33605878802246L366.3997097692307,282.0128690886509L366.740915076923,275.1727785910116L367.1308639999999,275.7213341305389L367.2770948461537,271.5612713559527L367.6670437692307,267.3584445581582L367.86201823076914,266.14564218582007L369.1780958461537,265.6991102839295L369.3730703076922,267.4057148517238L369.909250076923,264.63253198681923L370.44542984615373,262.2089295335664L371.0303532307691,260.41149418718703L373.0288414615384,253.35193659374926L373.7599956923076,258.48704264429546L374.44240630769224,258.42342378885013L374.8323552307691,255.90785964151223L375.51476584615375,258.55825268644827L375.5635094615384,254.74048593014322L376.8308434615384,252.92540745004075L377.513254076923,254.42397177446043L378.73184446153834,269.5771853656086L380.1454093076922,280.6343941339274L380.2916401538461,281.95009187381305L380.58410184615377,274.05440301626686L381.46148692307685,278.5774646703739L381.5589741538461,273.53055393686043L382.43635923076914,274.64544055496367L382.63133369230763,274.0250824210857L383.849924076923,271.38612258215664L384.1911293846153,273.0503885975776L384.8247963846153,278.6960305995924L385.117258076923,276.7626360590831L386.384592076923,278.5595091327575L387.11574630769223,274.5392559551188L387.5056952307691,268.0959346827114L387.55443884615374,268.3181848920445L388.62679838461526,265.4923996746851L388.82177284615375,268.3911446477202L389.5041834615384,266.0877092056927L390.08910684615375,271.05587777828373L390.1378504615384,272.9236461491602L390.4790557692306,274.58364665885665L391.16146638461527,273.82468428168033L391.453928076923,276.2742264265807L391.89262061538454,279.02065600908264L392.33131315384605,277.01733765197207L392.4288003846153,276.9697145897891L392.4775439999999,273.1780213213815L393.4036726923076,277.6933959152547L393.5499035384614,281.5796607411696L393.988596076923,279.769297636766L394.622263076923,276.65432575771104L395.7921098461538,274.09705034020925L396.57200769230764,281.41380387970435L397.10818746153836,281.89186204635735L397.98557253846144,291.510673028785L398.47300869230764,290.1137822056005L398.5217523076922,293.85179510824076L398.8142139999999,292.31586523873943L399.1554193076922,293.5803556752718L399.3503937692307,297.0764817260743L399.39913738461536,299.78780230421097L399.447881,295.3021699833646L400.5202405384615,295.9911425763428L400.5689841538461,293.43436025888775L400.7639586153846,295.22552579813316L400.86144584615374,301.2364505317752L401.30013838461537,301.61792508541964L401.49511284615375,293.5520675267111L402.9086776923076,293.04565934858994L402.95742130769224,293.8596548774667L403.39611384615375,295.0918641079983L403.5423446923076,293.80220162538467L403.88354999999996,288.0533146890542L404.3709861538461,292.944904224935L404.41972976923074,288.1530998456368L404.51721699999996,288.85549456559244L404.76093507692303,286.6653601836533L405.2483712307691,286.44664150148446L405.3458584615384,289.299099443027L406.12575630769226,281.1543784719996L406.41821799999997,279.9719406077878L406.46696161538455,280.3014428029658L406.8569105384615,286.49618186323266L407.78303923076913,285.42834994490573L408.61168069230763,289.0655872129554L411.0001178461538,287.8392015903969L411.6337848461538,282.4170312246802L411.78001569230764,285.922281275191L413.2910677692307,281.8262560706838L413.33981138461536,283.1342459479785L414.1684528461538,279.5544133966522L414.65588899999995,280.73284788155223L414.8021198461538,278.52487031347636L414.899607076923,279.9621138257976L415.4357868461538,287.2206583990779L415.7282485384615,293.3681718981138L416.0694538461538,296.0692693207262L416.9468389230769,296.63430382485313L416.9955825384615,299.59809391552574L417.1905569999999,298.9579396703409L417.3367878461538,302.6048334336956L417.43427507692303,307.71217376643784L418.11668569230767,302.6039843650686L418.3116601538461,293.01054347914294L418.8478399230769,298.9260573014991L418.99407076923075,301.4520802849323L419.96894307692304,302.62284454472234L420.3588919999999,306.88679678560726L420.8463281538461,305.84549834926486L421.43125153846154,309.15207358214224L422.55235469230763,299.17133715305715L422.7960727692307,295.5529014337921L423.62471423076914,297.3748993048284L425.7694333076923,296.099042407799L425.8181769230769,295.8336687803801L426.0131513846153,294.1360784815888L427.3779726153846,290.60508510263844L429.473948076923,290.7085232459237L429.86389699999995,287.73138910781597L430.2538459230769,287.8962532047691L430.30258953846146,288.0089226559807L431.76489799999996,282.37162933704553L431.9598724615384,276.55667360607754L432.4960522307692,278.19251749590273L433.08097561538455,279.30961147476967L433.2272064615384,281.2923850821774L433.3246936923077,281.46738130032287L433.51966815384606,282.2648511202171L433.90961707692304,292.3917992741862L436.8342339999999,291.6763616379824L437.1266956923077,298.0122661402296L437.1754393076923,300.46839316436746L438.0040807692307,305.8680618757701L438.34528607692306,308.0745966784831L439.4663892307692,312.9355891128735L439.66136369230765,310.5282766408144L440.34377430769223,307.48082548324044L441.1724157692307,296.6040285519517L441.46487746153844,301.16744258279186L442.09854446153844,305.6695287678002L443.0734167692307,304.17818700896805L443.51210930769224,307.16497913519464L444.2920071538461,304.6765212889867L444.3894943846153,306.0888537748586L444.8281869230768,304.08577067291867L445.26687946153845,297.29468473469416L445.6568283846153,304.79438428332554L446.6317006923076,306.5245542871204L446.72918792307684,308.6723974336379L446.8754187692307,305.77850968953226L446.97290599999997,307.4759338625685L447.2653676923076,304.1328687771417L447.850291076923,304.12664871521105L447.8990346923076,301.21225086131244L448.24024,299.23827466403645L448.3864708461538,305.38582514131053L448.63018892307684,304.8352988108071L448.9713942307692,303.9004572025619L449.0688814615384,300.99076300548137L451.55480584615384,298.02583010344676L452.09098561538457,297.20055725586474L452.23721646153837,294.81117764835176L452.4809345384615,300.3039997650293L453.26083238461536,310.87814840375L453.4558068461538,320.6545880388897L453.5045504615384,319.29308393752035L453.6020376923076,320.4927376190028L454.0894738461538,317.3463832337783L454.28444830769223,316.17184842115967L454.4794227692307,322.499432875485L454.91811530769223,326.50392125098915L454.96685892307687,328.84806619757586L455.21057699999994,328.5257622843699L455.4055514615384,325.5499278493976L455.454295076923,329.11154435728224L456.18544930769224,323.38304187084145L457.6965013846153,327.38026189919935L458.28142476923074,330.89503686299355L458.622630076923,327.6245972885995L458.8663481538461,315.5541011938741L459.54875876923074,314.92222309948954L459.98745130769225,316.9194337977402L460.7186055384615,316.03660465979624L461.25478530769226,314.89848806969644L461.5959906153846,317.1265909510904L461.64473423076913,316.50186023702247L462.0834267692307,314.0724169495574L463.9356841538461,316.2031204533447L464.081915,313.82898258341095L464.17940223076914,315.13386286173767L464.325633076923,314.1645000608175L464.37437669230764,311.2750086672413L464.5693511538461,310.19505889524874L466.12914684615373,299.4614109833942L466.81155746153837,304.1016432627157L468.4200967692307,298.3317281971679L468.61507123076916,300.28579169819477L469.49245630769224,307.0306574064579L469.73617438461537,302.0254735771613L470.46732861538453,308.2106687082888L470.6135594615384,305.6283365708156L470.75979030769224,300.84898110551967L471.7834062307691,306.3949031633887L472.3195859999999,309.9978237199671L473.00199661538454,316.6794287942309L473.48943276923075,321.5300673713326L473.63566361538454,329.32613430139196L473.830638076923,338.0441759362538L474.6592795384615,331.14153668102074L474.75676676923075,337.4019172413801L474.90299761538455,337.47303022857136L475.9266135384615,328.068811748402L476.02410076923076,331.1441753478462L476.2678188461538,322.38865371628384L476.8039986153845,325.95476733410254L477.1939475384615,326.3995246632309L477.3889219999999,328.7715646707082L478.2175634615384,324.1699173103395L478.51002515384613,326.78938298647535L478.9974613076923,321.884304690028L479.0949485384615,327.0781559955133L479.38741023076915,326.3965901940603L479.6311283076923,326.3263031210832L479.8748463846153,326.56479752173254L480.02107723076915,324.94241060863345L480.7522314615384,324.51645913385266L480.800975076923,319.4320002996759L482.11705269230765,321.4756175068098L482.5070016153845,323.4191010693143L482.9944377692307,324.0708965566368L483.5306175384615,319.19242697449414L484.5542334615384,314.3167660696105L485.3828749230769,312.70667232118006L485.4316185384615,312.36248363343435L486.9914142307692,315.05155877537817L487.04015784615376,313.6811998998862L487.33261953846153,311.65884914564475L489.8672875384614,315.7888288416505L489.9647747692307,329.89243989599004L490.4522109230769,331.54008373306146L490.79341623076914,341.51238961501366L492.1094938461538,344.98136508135684L493.13310976923066,350.84336691421777L493.62054592307686,342.3502366206273L494.40044376923066,332.7472623559667L494.49793099999994,327.2569535073209L494.59541823076916,333.5843404646429L494.8391363076923,333.7207990724649L496.39893199999995,331.09920568883814L496.642650076923,331.6374628701031L497.1788298461538,332.37468814982003L497.2275734615384,325.77528978349085L497.4225479230768,329.84193142722233L499.5185233846153,331.1949704014626L499.6647542307692,333.0356040904358L500.63962653846147,335.2707051066507L500.9320882307692,332.87743753265477L500.9808318461538,337.68930491998515L502.24816584615377,337.93384020364863L502.58937115384606,329.8223915683848L502.9305764615384,334.57017408246446L504.5391157692307,330.4678124611746L505.6114753076922,323.1203001900071L505.66021892307685,321.6554036108787L506.0989114615384,322.68340807198626L506.4401167692307,321.67055217586346L506.58634761538457,319.65159078270733L506.9275529230768,322.53605009128694L507.0737837692307,318.9392782871934L507.99991246153843,326.4485034641362L508.1461433076922,330.3882954021847L508.68232307692296,333.4975742939115L509.2185028461538,336.11981605161145L509.70593899999994,333.9745770866388L509.80342623076916,335.6301854240619L509.8521698461538,342.59175853152516L509.9984006923076,342.4559677064708L511.16824746153844,344.6453545003436L511.41196553846146,348.6094730111837L511.4607091538461,349.199419119372L511.65568361538453,349.07058415237327L512.5818123076922,347.9777542355981L513.0692484615383,354.68975184314166L513.4591973846153,353.72161645263213L514.0441207692307,352.5560088386838L515.9938653846153,356.7325525455638L516.4325579230768,350.2558211582321L516.4813015384615,353.0519095559886L516.7737632307692,350.38420156942954L516.8712504615384,355.2731670458397L517.309943,355.8988596488956L519.0159695384615,354.230732472519L520.3807907692307,344.8625948401127L520.5270216153846,348.2641386111892L520.6732524615384,350.3877725024787L521.111945,347.22170579555836L522.4767662307692,343.3520521019918L523.646613,348.51573796856655L524.134049153846,343.88622593237045L526.814948,338.2734540709299L527.1074096923076,337.1654885848077L527.3023841538461,338.4067836796369L527.4486149999999,340.21806510797666L527.9847947692307,341.53088176922796L528.8621798461537,353.82952009668645L529.1058979230769,357.4949229381395L530.61695,359.24519813474325L530.8606680769229,356.4191387201782L530.9094116923076,363.7492921292418L531.0068989230768,368.8270339189983L531.5918223076923,360.0010165066967L531.6893095384614,358.71708906916206L532.2742329230769,358.3699751252018L532.761669076923,363.223523018955L533.395336076923,361.73770775679486L533.6390541538461,356.6129603346855L533.6877977692308,358.98612269233234L534.4189519999999,362.29265337311654L534.7114136923076,360.326064872537L535.1988498461537,356.884739689716L536.3686966153845,362.38657683991664L537.197338076923,357.83901629817717L537.587287,358.2472193684531L538.2696976153845,358.80167477888415L539.7807496923076,359.17467082917614L540.1219549999998,357.0469215552934L540.2681858461538,356.30945412380623L540.6581347692306,353.35733770170503L541.4380326153845,352.5874677724143L541.633007076923,344.99166672567304L541.8767251538461,342.19678444069126L541.9742123846153,347.8864758806429L542.0716996153845,346.77909006410056L542.2179304615383,345.5449770859943L543.9239569999999,338.3339683465319L544.2164186923076,340.4600828236187L544.2651623076922,342.12109992562495L544.6063676153846,341.87929387254655L545.0450601538461,338.4626129150435L546.0199324615384,344.7125576334558L546.6048558461538,349.0384766983923L547.3847536923076,351.9268620233919L547.4822409230769,358.07487361142813L547.5309845384614,344.8408223575439L547.6284717692307,349.17536403498366L547.9209334615384,358.5532382633341L548.1159079230769,363.4184308860806L548.3596259999999,364.21407876673345L548.6520876923076,370.5805233361937L548.8958057692306,365.4529771145694L549.2857546923076,363.9603773261926L550.3093706153845,366.6271385579865L550.9917812307691,366.8422862273616L551.5279609999999,358.17580171191366L552.015397153846,353.87337888376305L552.2103716153845,358.2404654919887L552.2591152307691,351.0535452909869L553.6239364615384,355.33472765158206L554.0626289999999,354.8839803876762L554.4525779230768,365.25558961960803L555.183732153846,369.4722057075403L555.2324757692306,372.15622345140946L555.817399153846,363.833165147727L557.3284512307691,365.94405861227114L557.7671437692306,371.0263650576325L558.108349076923,360.9686701253905L558.4008107692307,358.4697537028084L558.5470416153845,354.8015475478792L558.5957852307691,351.2491779481335L558.8395033076922,361.49630119961125L559.2781958461537,354.16324570685623L559.6681447692307,352.98198154997846L560.009350076923,351.5975633733207L560.0580936923077,348.7457469754787L560.1555809230769,356.8934074772374L560.643017076923,350.93156960780544L560.7892479230768,349.61197499461286L560.8867351538461,352.3410637805712L562.1053255384614,346.33766838561894L562.3490436153845,349.39569836349466L562.6415053076922,348.56735771124784L562.8364797692307,343.55288871267146L564.6399935384615,345.23736149965663L564.9324552307692,358.2870520302628L565.0299424615384,355.0105709150948L565.0786860769231,367.37636248499837L565.1274296923076,370.56794684225736L565.4198913846153,366.41899846067116" style="fill: none;" fill="none"></path></g></g></g></g><g opacity="0.2"><g><g><g><path stroke="rgb(255, 112, 67)" stroke-width="2px" d="M41.62100046153846,17.883306156505398L41.91346215384615,57.59390219775139L42.790847230769224,86.38488006591831L42.93707807692307,96.28673158992456L43.473257846153835,87.59874447909306L44.20441207692307,120.28972057862757L44.35064292307692,128.38085278597788L45.32551523076923,107.51325689662627L48.29887576923076,103.38508558273355L48.44510661538461,99.95065056193994L48.88379915384614,99.88891683925317L49.663697,118.46859624169133L49.761184230769224,121.29056882858322L51.90590330769229,123.04709191755859L52.14962138461537,118.35639407418034L53.1732373076923,128.2142086029057L53.41695538461537,115.66776141253428L53.75816069230768,130.83230014280883L54.05062238461537,119.39849372343627L55.75664892307691,127.59908346696378L55.85413615384614,122.28879534114535L56.244085076923064,104.91585250334344L57.26770099999999,118.73875808715866L57.65764992307691,121.53811818903182L58.63252223076921,88.90637696873091L61.26467746153845,143.58639712767217L61.31342107692306,132.8998677947309L62.28829338461537,118.19380539113865L62.43452423076922,134.19730008732236L63.16567846153845,128.29703911868052L63.3119093076923,130.41589450836224L63.360652923076906,134.2702581232249L63.84808907692306,136.66603452509145L64.77421776923076,98.37334780259607L65.79783369230768,120.98226889697031L66.87019323076922,115.3370538191366L68.18627084615383,110.11725659803949L68.67370699999998,124.36713669516865L68.96616869230768,123.43359335986094L69.30737399999998,90.66560372439335L69.3561176153846,132.65412087874023L70.9646569230769,138.91831176931254L71.64706753846151,120.46353357488499L71.98827284615383,126.83820611780385L72.03701646153844,112.72727810252837L72.13450369230767,134.89201953194404L72.28073453846152,144.8875981677667L72.37822176923075,124.45074553923217L72.96314515384614,125.16373521631459L73.45058130769229,132.26331814852676L75.54655676923076,140.98624810305557L75.93650569230768,130.8316447084605L76.3264546153846,131.7759207812227L77.39881415384613,145.82138729095507L77.5937886153846,137.52326072346128L78.03248115384613,122.37936817516024L78.2274556153846,153.90473621541855L78.32494284615383,135.32923520695127L78.76363538461537,156.78954857046006L79.00735346153844,140.7015028433371L79.10484069230768,147.14102242209745L79.34855876923075,147.50171613693286L79.44604599999997,148.69587655500982L79.64102046153845,140.53875030170835L79.83599492307691,152.929490869696L80.1284566153846,156.99850923364863L80.17720023076922,134.95625209808398L81.29830338461537,138.48252985694236L81.49327784615382,153.6825849359691L83.10181715384613,110.986444473267L83.44302246153845,158.68023087761668L83.73548415384613,129.73575847799174L84.95407453846151,128.95632414384366L85.05156176923076,136.0982235561722L85.44151069230767,133.84078476645774L86.12392130769229,129.04583189704246L86.66010107692306,132.5807122317232L86.80633192307691,130.98706457831688L87.24502446153845,115.93366293473719L87.63497338461536,117.11295318603561L88.0736659230769,144.96612739563037L88.12240953846151,149.547080950304L88.41487123076921,133.0737217556351L88.46361484615383,141.16108521548233L88.70733292307689,137.74541200291074L89.58471799999998,126.11079688505737L89.73094884615382,132.55576476183853L90.16964138461536,121.26435145464853L92.55807853846152,145.696936694059L92.70430938461537,141.458242763173L92.80179661538459,135.87365536256317L92.99677107692305,151.5003162730829L93.28923276923075,127.8529004183687L93.53295084615384,163.6547727584844L94.02038699999997,113.72284191305027L94.31284869230768,127.87530808015347L94.55656676923074,138.70689322731758L95.0440029230769,119.09297938780395L97.09123476923075,155.1192970275884L97.28620923076922,156.21518325805715L97.33495284615381,160.21914976293442L97.38369646153843,143.49590622295082L98.26108153846151,141.78215022520635L98.89474853846151,142.7439182021406L99.52841553846152,145.33681648427836L101.38067292307692,113.56914255835835L101.91685269230767,125.81544178182472L102.06308353846151,136.4443338567565L102.20931438461535,139.2550821304326L103.18418669230766,140.15183921293828L103.47664838461536,148.4498838511385L103.81785369230766,147.42924967679158L104.8902132307692,161.96121233159897L105.03644407692305,145.29626148397318L105.57262384615383,147.89243693785284L105.71885469230767,132.67804423245562L105.86508553846151,133.03693550283305L105.91382915384614,154.6566013422884L108.25352269230767,132.01785798506347L108.39975353846152,169.41464788263548L108.54598438461537,138.7272526567637L108.59472799999999,150.30193649638832L109.66708753846152,145.72741439125804L110.2520109230769,133.0518056696116L110.73944707692306,139.0237138054592L110.93442153846152,118.43348953940693L112.1530119230769,145.10135169462774L112.20175553846153,152.09299278259326L112.73793530769228,129.98265240409202L113.12788423076921,145.01417892629496L113.42034592307691,160.7219088727783L114.9801416153846,152.57092731649277L115.17511607692306,151.59052042527685L116.39370646153844,172.22969744422272L117.17360430769229,153.7962618307639L117.22234792307688,160.67271033200404L117.95350215384613,170.68426518006814L118.1484766153846,163.06889638033832L118.92837446153844,177.78266013752386L118.97711807692305,160.75779390335134L120.04947761538457,155.92478487708402L120.53691376923074,166.99994581395984L120.68314461538458,151.93835124102557L120.92686269230767,147.1935390992603L121.0730935384615,156.79839693416298L122.04796584615383,130.43899856914217L122.73037646153843,166.75079883228705L123.16906899999998,158.73012581738612L123.36404346153843,165.25370485132444L123.46153069230768,153.2578634782276L123.5590179230769,127.90291825207842L123.70524876923074,157.1100150021645L124.04645407692306,135.8292906501081L124.48514661538458,165.53849107568968L125.1675572307692,154.96256628903524L125.26504446153842,154.23990895531443L125.41127530769228,146.4819012555214L125.65499338461537,156.99957431446472L125.80122423076921,161.6027307076893L125.8499678461538,162.07415186275188L126.82484015384613,151.07780690626714L127.26353269230765,147.81075343218765L127.55599438461536,144.87670157172514L127.94594330769227,151.48192314668188L128.3846358461538,153.68524763800932L128.72584115384612,162.02466656945023L129.74945707692305,162.03699692812884L129.94443153846152,162.83392316644895L130.43186769230766,161.91664279591004L130.62684215384613,125.4157087586147L131.06553469230766,152.2842157537292L131.69920169230767,157.68663337013987L131.8454325384615,140.42286131598777L132.1378942307692,162.9845501726329L132.23538146153842,139.86545536734886L134.18512607692304,130.67954297499267L135.0137675384615,169.1751275929543L135.50120369230766,187.1121945814659L135.6474345384615,162.41079932993162L135.74492176923073,163.01957494562376L136.62230684615383,191.2860005118636L137.30471746153842,175.40240933678422L137.40220469230766,159.69205765290747L138.27958976923074,173.24996293674872L138.4745642307692,179.13842608711994L138.8645131538461,154.18472957611135L139.69315461538457,154.3945095322354L139.98561630769228,167.99907354875097L141.15546307692304,161.3626369129533L141.78913007692304,165.66568630391956L141.9353609230769,167.04390087994716L141.9841045384615,184.24765972657693L142.17907899999997,160.84386062622121L142.37405346153844,143.04246854782153L142.5690279230769,158.3450581377208L142.9102332307692,156.70741445368037L143.64138746153844,174.18612800944987L145.29867038461535,159.46679306030325L145.4936448461538,167.26097254319677L145.83485015384613,155.55679945512304L146.27354269230764,151.8655160990633L147.34590223076918,166.39260396090472L147.44338946153843,163.7334248802884L147.54087669230765,174.46599847620237L147.93082561538458,152.6147594885398L148.3207745384615,162.04531275142375L148.51574899999997,172.93347007578123L149.49062130769227,136.2540121078496L149.73433938461534,149.71683844653094L149.78308299999998,144.59564313021622L149.8805702307692,155.17746682600594L150.02680107692305,139.81060370531998L150.27051915384612,147.35182649439082L150.61172446153844,160.52585207332316L150.75795530769227,150.55833422053993L151.00167338461534,172.65536108883998L151.92780207692303,146.6250726959927L152.4152382307692,163.46150155500985L152.7076999230769,155.1924598867248L153.00016161538457,119.35240849581675L153.19513607692303,164.9175079952592L153.78005946153843,177.9265689416371L153.82880307692304,167.33368479121867L155.04739346153843,156.559204361656L155.48608599999994,158.4257584918634L157.19211253846152,163.67185501618872L157.24085615384612,164.106530883096L157.33834338461534,158.71177365563182L159.4830624615384,159.93755878101746L159.87301138461535,171.34957200830686L160.21421669230764,139.4474111470314L160.3117039230769,187.58210004459787L160.40919115384614,172.97513112154928L160.6529092307692,186.50632745569462L161.87149961538458,179.4641359936113L161.92024323076922,171.20984159816447L162.40767938461534,166.57301226529262L162.50516661538458,176.2119117216636L162.74888469230766,178.1227486350325L163.43129530769227,167.4909071055331L163.72375699999998,144.0282418077647L164.16244953846152,161.6907227689575L164.89360376923074,166.0097074075184L165.0885782307692,167.98399855873856L165.18606546153842,168.69862682169187L166.4046558461538,179.3590616746388L167.47701538461536,186.81032609939632L167.76947707692304,180.97618207064596L168.59811853846148,149.02601064335266L168.8905802307692,181.76958534934363L168.9393238461538,159.14976765892771L169.6217344615384,171.767862016505L170.15791423076917,149.1426779573619L171.27901738461534,177.0899889252408L171.62022269230766,168.12655552950827L171.86394076923074,164.82615683295563L172.49760776923074,162.50428065386737L172.83881307692303,217.58632785623792L173.56996730769228,193.72851757569808L174.15489069230767,182.37528861652777L174.3011215384615,167.2328298308638L174.9835321538461,162.03941384228847L176.68955869230766,167.93443133614335L176.73830230769227,182.38909370249027L176.78704592307687,173.97651191191298L177.66443099999995,204.97106005928796L178.39558523076917,172.36885434931028L180.73527876923075,169.2830694372009L181.17397130769226,192.03852107308188L181.61266384615382,176.2380881309515L181.9051255384615,163.7280994762079L182.92874146153844,159.20842903310654L183.02622869230763,181.40950610420978L183.07497230769226,160.5447367754855L185.3659222307692,168.08296914534188L185.75587115384613,168.33920301090643L186.87697430769225,184.07618171518558L187.51064130769225,169.21601031043366L188.2905391538461,176.1603372313765L188.43676999999994,162.3148601271895L188.8267189230769,171.572501616045L188.97294976923072,176.97471440922186L190.1427965384615,174.786260084673L190.33777099999995,181.9798978458757L190.4352582307692,166.91559960625443L191.80007946153842,176.157182953575L192.92118261538457,188.480577642268L193.6523368461538,189.5611430948437L194.5297219230769,196.25476637753636L194.82218361538457,207.33893953670218L195.6020814615384,178.3119233738298L196.47946653846148,172.23121313615334L196.5282101538461,187.41746312921757L196.8694154615384,204.6913124864758L197.01564630769226,176.2804046110679L198.18549307692302,160.64637006412903L198.67292923076917,168.19062423706106L198.81916007692303,210.48383643410486L198.86790369230766,174.72215041247335L198.96539092307688,180.50693204186237L199.0141345384615,178.61362799731222L200.23272492307686,181.75819717754075L201.84126423076918,175.51092468608567L202.2312131538461,201.35089133002603L202.91362376923072,195.88207002119645L202.96236738461533,187.8268228444192L203.7910088461538,177.26671041141913L205.20457369230766,182.43747295032904L205.30206092307685,190.34176540374816L205.78949707692303,190.25438781218153L206.6181385384615,173.9640176946472L206.86185661538457,187.79466559670246L207.9342161538461,194.55313591523665L208.32416507692304,206.05129779468948L208.8603448461538,200.75137372450456L208.95783207692304,187.91891137036467L209.29903738461536,206.9266303669329L209.59149907692304,220.85006319392878L209.93270438461536,200.25045802376547L210.22516607692305,206.44095351479334L210.37139692307687,205.4857808459895L211.20003838461534,217.49612370404395L211.78496176923073,215.00256469033044L211.93119261538456,200.6276604912504L213.05229576923074,185.7794097987094L213.14978299999993,204.7396507696678L213.44224469230764,175.05986296046916L213.6372191538461,197.10683103041276L214.41711699999993,185.98710055784804L215.24575846153843,186.09573880108977L216.2206307692307,197.31587362289488L217.0980158461538,175.9131565527488L217.19550307692302,184.49242349104506L217.29299030769226,183.85153159228292L217.43922115384612,196.51902931386834L217.58545199999995,197.06181088360935L218.41409346153844,205.38111617348474L218.9502732307692,163.57575195485947L219.6326838461538,183.63990822705412L221.1924795384615,182.25227178226874L222.36232630769226,192.10054154829604L222.55730076923072,182.3852020610468L222.65478799999994,169.3904787410395L222.94724969230765,185.49101868542814L223.0934805384615,190.28253052451453L223.97086561538458,197.00585317611754L224.60453261538458,215.20701924237403L224.9944815384615,179.66412539915663L225.62814853846146,206.90352630615297L225.87186661538456,194.09486441178817L226.6517644615384,180.0643909627747L226.89548253846147,187.47460881146574L226.9929697692307,179.9915967854592L227.4804059230769,171.20549934560657L227.67538038461532,187.46428572047898L229.08894523076916,190.16823916001812L229.33266330769226,193.48477792739928L229.67386861538458,184.36088601025725L231.81858769230766,221.11088509993183L232.2085366153846,185.5486969080844L232.54974192307685,179.48281587253973L232.74471638461534,160.7733195044783L233.2808961538461,179.25046439604384L233.57335784615378,209.2252795913009L233.86581953846147,197.59365489266196L234.93817907692303,151.00443922389687L235.4743588461538,202.2886130593046L235.71807692307686,192.58867627924198L236.1567694615384,186.8826696655973L236.20551307692304,186.99970566142747L236.7904364615384,191.34884028001326L237.32661623076916,216.54344987869328L237.47284707692305,212.83987712860173L240.2512331538461,207.5579775029969L240.49495123076917,209.77887582778993L240.54369484615378,203.61062413995978L241.03113099999993,215.33212527361846L244.58941492307687,203.6315980391075L245.12559469230763,208.11411354758584L245.17433830769224,208.85241937637392L245.27182553846148,179.74642337452337L245.36931276923073,189.2417827086021L245.51554361538456,199.3499731584035L245.56428723076917,205.03193352439249L246.78287761538456,225.53891762820226L247.02659569230764,202.19459919496077L247.1728265384615,190.55916478417194L247.56277546153842,219.0585562966093L248.5376477692307,196.71570058302507L248.68387861538457,218.9551615281545L248.73262223076918,228.20981259779563L249.4637764615384,195.6431232365701L250.24367430769226,211.5221673358577L250.53613599999994,212.0050585920167L250.73111046153838,221.3223446065736L251.16980299999994,217.05985021591252L251.2672902307692,235.72633370486244L251.7059827692307,201.9541776830506L251.9009572307692,187.8978965065702L252.43713699999995,206.52767567201155L253.70447099999996,197.78164165670282L254.1431635384615,226.44296641783347L254.87431776923071,202.67392652685052L255.215523076923,210.00520550121024L255.50798476923072,186.80987548828182L255.70295923076918,178.29709417169803L255.75170284615376,225.56558561325141L256.6778315384615,201.56464485688704L256.82406238461533,220.69648673317715L258.5788325384615,213.24276442961323L258.87129423076914,199.5383286042653L259.6024484615384,239.09268548271945L259.69993569230763,219.5166639414707L260.5285771538461,197.1379231973134L260.5773207692307,185.51903850382084L261.5034494615384,209.53816756335235L261.552193076923,192.2053700793879L261.69842392307686,205.1843220103877L262.1371164615384,198.95626193826908L262.67329623076915,201.97326720844677L263.8918866153845,192.9664932164285L264.0381174615384,215.70047937740046L264.57429723076916,190.5234026475392L264.720528076923,193.61320209503234L264.81801530769224,195.613014221192L264.91550253846145,169.42996866052854L266.3290673846153,225.8151832060387L267.35268330769225,245.22349548339915L267.69388861538454,237.96324920654368L268.08383753846147,241.62913448160415L268.2788119999999,230.54786981235918L268.62001730769225,226.1992677341815L268.66876092307683,230.51690053939888L268.71750453846147,230.17042155699366L269.2049406923077,226.3371547352191L270.4722746923076,198.3448645851835L270.7159927692307,208.03185653686586L271.49589061538455,193.70631473714715L272.0320703846153,216.10971619866174L272.2270448461538,213.1044677821079L272.2757884615384,230.3046217398217L272.6657373846153,236.32195966894045L272.95819907692305,193.74519018693465L273.10442992307685,219.75159619071331L273.5431224615384,210.5896071520725L273.73809692307685,217.5321725932041L274.07930223076914,184.67373301766193L274.1280458461538,207.57260188189483L274.4205075384615,217.12490207498792L274.71296923076915,199.45172934098738L274.8104564615384,221.39223029396817L274.9566873076922,198.64443904703373L276.6627138461538,237.54926048625668L277.24763723076916,203.89872850071362L278.17376592307687,215.55710311369526L279.294869076923,218.35666803880238L280.2697413846153,190.6068885976624L281.43958815384605,232.785768465563L282.21948599999996,209.22982666709268L282.6094349230769,217.20142403515968L283.0481274615384,197.37158554250604L283.19435830769226,214.63851187445965L283.2918455384615,222.4612027515071L283.34058915384605,228.00646409121495L285.4853082307692,229.58307045156374L285.77776992307685,238.55871131203463L285.9240007692307,224.9927359927791L286.265206076923,211.21501441435444L286.898873076923,206.91647113453323L286.99636030769227,215.11857656999132L287.04510392307685,216.04908852143785L287.3863092307692,208.60945805636382L288.2636943076923,237.2630404992544L289.62851553846144,230.84822260249814L290.6033878461538,232.36944476040998L290.700875076923,228.17941682989016L290.9933367692307,243.59003019332957L292.2606707692307,231.2428760095083L292.50438884615374,212.85204362869328L293.33303030769224,216.63365403088721L294.2104153846153,234.9829892245213L294.60036430769225,244.8084007176493L296.1114163846153,243.29406062039533L297.4274939999999,247.73548858816045L298.54859715384606,211.5422809774232L299.9621619999999,249.68798654729744L300.4983417692307,226.85199841586095L301.27823961538456,218.62433104081654L301.96065023076915,221.5158615979288L302.0093938461538,215.9636362682696L302.9842661538461,265.26569470492353L304.9340107692307,264.1821797977802L305.8601394615384,265.3063316345223L306.00637030769224,191.1765839403332L306.2500883846153,218.94074197249043L308.0536021538461,245.0016309564771L308.3948074615384,234.14116573333808L308.5897819230768,211.89670710130235L308.88224361538454,241.71397226507085L309.17470530769225,247.35058476708224L309.5646542307692,256.80563488873645L309.6621414615384,244.19901063225558L310.8319882307692,235.8497192209424L311.22193715384606,235.16491322083976L312.05057861538455,235.3119763027545L312.39178392307684,241.9476346102635L312.97670730769227,258.5493770079187L313.0741945384615,237.40195161646133L313.3666562307692,252.91833569786837L313.95157961538456,252.95749790018328L314.19529769230763,240.09959650039744L314.6827338461538,246.99210314317256L315.1701699999999,225.5507564111196L316.53499123076915,226.4120790741667L316.63247846153837,221.33168454603782L316.82745292307686,227.260743661361L317.5586071538461,246.33126146143206L319.55709538461525,217.48281019384277L319.70332623076916,239.34240596944704L320.58071130769224,230.0297489599755L321.45809638461526,238.74768122759804L322.28673784615376,265.38752356442615L322.4329686923076,275.22084123438134L322.6766867692307,252.793762207032L322.92040484615376,245.84636293758118L323.7977899230769,245.17720543254578L323.8465335384615,251.3985473025936L324.6751749999999,263.5959757024599L324.82140584615377,256.61072509939095L325.1626111538461,259.25818829103025L326.47868876923064,237.75236320495677L326.5761759999999,254.21728368239042L326.91738130769227,251.34246670116153L327.7947663846153,262.25323651053765L328.23345892307685,258.85284311121234L328.6721514615384,226.230196042495L329.1595876153845,242.21603497591957L329.6957673846153,264.385692162948L329.93948546153837,236.54828934236076L330.865614153846,252.5922161449093L331.10933223076916,271.5272228934556L331.2068194615384,251.48952978307625L331.40179392307687,251.02523647655212L331.8404864615384,221.99781066721204L332.71787153846145,234.64363809065455L333.6927438461538,234.4001442302364L333.9364619230769,245.10711492191734L334.3751544615384,223.642746058378L334.66761615384604,236.28611560301417L334.91133423076917,247.2726700089202L335.057565076923,232.23041074926272L336.12992461538454,232.0969069654298L337.0073096923076,236.06236670234057L337.20228415384605,249.74599248712786L337.4460022307692,258.29392147064283L338.22590007692304,259.0940429514112L338.32338730769226,260.78547321666446L339.10328515384606,242.05758372220197L339.2007723846153,247.80504655838087L339.49323407692304,253.91271153363388L339.59072130769226,243.83815305883306L339.6882085384614,253.02881735021492L340.2731319230768,279.7752906625929L340.37061915384606,309.78476194901987L340.4681063846153,266.7008501399655L341.58920953846143,268.11839077689507L342.027902076923,255.2658147811897L342.1741329230768,268.9979017431093L342.95403076923066,271.75908279419025L343.49021053846144,268.2001562118538L343.58769776923066,292.0846754420896L343.8801594615384,243.24764767560163L344.51382646153843,273.3382699272857L344.75754453846145,270.37865612723687L345.39121153846145,264.6435236497366L347.29221253846146,253.5777845816186L348.4133156923076,266.4437560168187L348.60829015384604,267.1473647897901L348.6570337692307,276.29157517173155L348.998239076923,259.26609446785744L349.82688053846147,282.8103613419974L350.3630603076922,235.5051655769355L350.899240076923,256.2550700361086L351.2404453846153,263.31209070032367L351.532907076923,260.00022190267464L352.70275384615377,246.37558520924034L355.3836526923076,267.89242978529575L355.57862715384607,256.3927112492655L356.2122941538461,212.15732418407157L356.9434483846153,248.51652054353266L357.3333973076922,243.79595947265696L357.3821409230768,231.88610289313647L357.5771153846153,248.87979503111478L358.06455153846144,240.661754348062L358.5519876923076,240.70296478271555L358.60073130769223,279.8505836833615L358.6494749230768,269.5981157476259L359.03942384615374,294.20754536715503L360.0142961538461,267.42813647877165L361.1841429230768,278.2858980352236L361.52534823076917,274.02328075062223L361.67157907692297,264.21413222226306L362.15901523076917,266.68257990750476L362.5977077692307,286.45310159163125L362.74393861538454,276.6653366088875L363.2313747692307,255.84472716938438L363.47509284615376,271.19770327481433L365.22986299999997,305.5313207452956L365.6685555384615,296.4288943030626L365.7660427692307,271.4239919835879L365.96101723076913,269.40910486741575L366.25347892307684,293.70933333310296L366.3997097692307,288.59620805220254L366.740915076923,248.3178420066841L367.1308639999999,277.8750226280914L367.2770948461537,255.22841405868604L367.6670437692307,250.85769107125094L367.86201823076914,261.38404863531014L369.1780958461537,263.9459776444876L369.3730703076922,274.1060293371035L369.909250076923,253.7447155172182L370.44542984615373,252.69360364567223L371.0303532307691,253.35456822135305L373.0288414615384,225.63534840670567L373.7599956923076,278.6480255126961L374.44240630769224,258.17364926771756L374.8323552307691,246.03148217634794L375.51476584615375,268.9639830155814L375.5635094615384,239.75151989676806L376.8308434615384,245.79921262914556L377.513254076923,260.3074977181182L378.73184446153834,329.0703441446487L380.1454093076922,324.046194076539L380.2916401538461,287.1156637885362L380.58410184615377,243.0550728711222L381.46148692307685,296.33549490842034L381.5589741538461,253.7158354412433L382.43635923076914,279.02260624278756L382.63133369230763,271.58948915655037L383.849924076923,261.02528025887307L384.1911293846153,279.58447733792474L384.8247963846153,300.861432942478L385.117258076923,269.17191956260064L386.384592076923,285.6142275550157L387.11574630769223,258.75530628724607L387.5056952307691,242.79875707626414L387.55443884615374,269.19076330011615L388.62679838461526,254.39806066859927L388.82177284615375,279.77193156155755L389.5041834615384,257.04417202689507L390.08910684615375,290.5614460164859L390.1378504615384,280.2567071914681L390.4790557692306,281.10098856145765L391.16146638461527,270.8449157368061L391.453928076923,285.89139435508116L391.89262061538454,289.80343619260003L392.33131315384605,269.15209267356255L392.4288003846153,276.7827412865387L392.4775439999999,258.2914226271897L393.4036726923076,295.42124592174264L393.5499035384614,296.8375576192691L393.988596076923,272.6616158918909L394.622263076923,264.42460857738223L395.7921098461538,264.05690990794864L396.57200769230764,310.1401712244216L397.10818746153836,283.7687702178963L397.98557253846144,329.27516737851323L398.47300869230764,284.62943744659503L398.5217523076922,308.52763886885293L398.8142139999999,286.2856381156236L399.1554193076922,298.54488216747023L399.3503937692307,310.802651492033L399.39913738461536,310.4327407316737L399.447881,277.69109136408105L400.5202405384615,298.6961236433558L400.5689841538461,283.39615579084995L400.7639586153846,302.25783582167276L400.86144584615374,324.8359924663206L401.30013838461537,303.1156355250974L401.49511284615375,261.88463661887505L402.9086776923076,291.0574459596122L402.95742130769224,297.05548954010095L403.39611384615375,299.9296510869815L403.5423446923076,288.73884695226576L403.88354999999996,265.48256154493924L404.3709861538461,312.1498148658068L404.41972976923074,269.3399565436631L404.51721699999996,291.61317235773345L404.76093507692303,278.066655245695L405.2483712307691,285.5879282517875L405.3458584615384,300.4981584548959L406.12575630769226,249.1773212606264L406.41821799999997,275.3295614069166L406.46696161538455,281.59510413083245L406.8569105384615,310.81739876487126L407.78303923076913,281.2359261079276L408.61168069230763,303.3457749106676L411.0001178461538,283.02427872744556L411.6337848461538,261.12900274450203L411.78001569230764,299.6842728528118L413.2910677692307,265.7448172135794L413.33981138461536,288.2695559588354L414.1684528461538,265.4996028379968L414.65588899999995,285.35950938138177L414.8021198461538,269.8561110930017L414.899607076923,285.60488761555143L415.4357868461538,315.71849103407516L415.7282485384615,317.503976128319L416.0694538461538,306.67407053167256L416.9468389230769,298.8526905233218L416.9955825384615,311.2342550104323L417.1905569999999,296.4446247274234L417.3367878461538,316.9229335784921L417.43427507692303,327.76414541764785L418.11668569230767,282.5486791784121L418.3116601538461,255.3456548777501L418.8478399230769,322.1510056582373L418.99407076923075,311.3695202740765L419.96894307692304,307.21939190951343L420.3588919999999,323.6275353865199L420.8463281538461,301.7572478381079L421.43125153846154,322.13404629447336L422.55235469230763,259.9858842763041L422.7960727692307,281.34653065421446L423.62471423076914,304.52826040441425L425.7694333076923,291.08988995985635L425.8181769230769,294.7917831594302L426.0131513846153,287.4711549932315L427.3779726153846,276.7420224276464L429.473948076923,291.11463260650714L429.86389699999995,276.0428378365265L430.2538459230769,288.54352751645257L430.30258953846146,288.45127513192L431.76489799999996,260.2390048287139L431.9598724615384,253.72652721405103L432.4960522307692,284.615017890931L433.08097561538455,283.6954435001728L433.2272064615384,289.0769691467293L433.3246936923077,282.1544354178697L433.51966815384606,285.3958040584225L433.90961707692304,332.15129522843887L436.8342339999999,288.8674759431327L437.1266956923077,322.88771386580123L437.1754393076923,310.111414042387L438.0040807692307,327.06774642250843L438.34528607692306,316.737691445785L439.4663892307692,332.02037221735264L439.66136369230765,301.07690698450347L440.34377430769223,295.5162019729623L441.1724157692307,253.90054503354233L441.46487746153844,319.0839006250564L442.09854446153844,323.34520704096104L443.0734167692307,298.3230176405482L443.51210930769224,318.89144871451725L444.2920071538461,294.9065660996879L444.3894943846153,311.6338241750552L444.8281869230768,296.2214493318046L445.26687946153845,270.6321453614676L445.6568283846153,334.2390174865732L446.6317006923076,313.3173892281281L446.72918792307684,317.1050623980444L446.8754187692307,294.416792782871L446.97290599999997,314.14020512320866L447.2653676923076,291.00763294913634L447.850291076923,304.10222807797606L447.8990346923076,289.7700090408333L448.24024,291.4882301850761L448.3864708461538,329.5217745520861L448.63018892307684,302.6738727742984L448.9713942307692,300.23016773570754L449.0688814615384,289.56698825142684L451.55480584615384,286.38518220728173L452.09098561538457,293.9604466178209L452.23721646153837,285.4302143617118L452.4809345384615,321.8694146763204L453.26083238461536,352.393401926215L453.4558068461538,359.0379495620737L453.5045504615384,313.947671283376L453.6020376923076,325.20270798423167L454.0894738461538,304.99345493316736L454.28444830769223,311.56049745733173L454.4794227692307,347.3422151912352L454.91811530769223,342.22597659718L454.96685892307687,338.05143330314036L455.21057699999994,327.26036219163467L455.4055514615384,313.86647935347213L455.454295076923,343.0948367552333L456.18544930769224,300.89232028614475L457.6965013846153,343.07378092679204L458.28142476923074,344.6944242824217L458.622630076923,314.78449708765294L458.8663481538461,268.1640253934001L459.54875876923074,312.4414012215363L459.98745130769225,324.760699445552L460.7186055384615,312.57052178816446L461.25478530769226,310.4301189942802L461.5959906153846,325.8743643327202L461.64473423076913,314.04909974878575L462.0834267692307,304.53415931354954L463.9356841538461,324.5684933228935L464.081915,304.50786001032134L464.17940223076914,320.25696425004526L464.325633076923,310.35867665030827L464.37437669230764,299.9305523092105L464.5693511538461,305.9550590515145L466.12914684615373,257.31994602897026L466.81155746153837,322.31969807364817L468.4200967692307,275.67841633883467L468.61507123076916,307.9576567736548L469.49245630769224,333.511731147767L469.73617438461537,282.37457942962726L470.46732861538453,332.4944151098087L470.6135594615384,295.4898207404405L470.75979030769224,282.0847135890622L471.7834062307691,328.1687941984706L472.3195859999999,324.14328028939076L473.00199661538454,342.91213443062617L473.48943276923075,340.57420011000295L473.63566361538454,359.93433796275843L473.830638076923,372.2721522071155L474.6592795384615,304.0410268956973L474.75676676923075,361.9808497862392L474.90299761538455,337.75222752311106L475.9266135384615,291.1468308188707L476.02410076923076,343.2183861299004L476.2678188461538,288.0135269165047L476.8039986153845,339.9557158730256L477.1939475384615,328.1456901376907L477.3889219999999,338.0844508084393L478.2175634615384,306.1033510728324L478.51002515384613,337.0736891139647L478.9974613076923,302.62643571333535L479.0949485384615,347.469779101286L479.38741023076915,323.7206889932815L479.6311283076923,326.0503484552566L479.8748463846153,327.5011523853658L480.02107723076915,318.5727437626241L480.7522314615384,322.84412748163487L480.800975076923,299.4698638916024L482.11705269230765,329.4990801377739L482.5070016153845,331.04942815954126L482.9944377692307,326.6299162777997L483.5306175384615,300.03902669386514L484.5542334615384,295.17439296028914L485.3828749230769,306.38526977192356L485.4316185384615,311.0111615441071L486.9914142307692,325.6091592095124L487.04015784615376,308.30102244290526L487.33261953846153,303.71888091347523L489.8672875384614,332.00357671217574L489.9647747692307,385.2647453654907L490.4522109230769,338.0089119997901L490.79341623076914,380.6647432500676L492.1094938461538,358.6009387103004L493.13310976923066,373.85822140086884L493.62054592307686,309.005286650225L494.40044376923066,295.04494467648675L494.49793099999994,305.7014059586967L494.59541823076916,358.42634738575424L494.8391363076923,334.256550355392L496.39893199999995,320.80654595115055L496.642650076923,333.75071889704014L497.1788298461538,335.26911449432464L497.2275734615384,299.86533659154804L497.4225479230768,345.8080072402964L499.5185233846153,336.5071480490954L499.6647542307692,340.26213143088694L500.63962653846147,344.04595392400665L500.9320882307692,323.48120966824706L500.9808318461538,356.5812177658091L502.24816584615377,338.8939122286719L502.58937115384606,297.9759651530881L502.9305764615384,353.2104827707474L504.5391157692307,314.3614961450759L505.6114753076922,294.27317073128523L505.66021892307685,315.9040608839564L506.0989114615384,326.71946499564524L506.4401167692307,317.6939701600517L506.58634761538457,311.7249295494782L506.9275529230768,333.8607499382722L507.0737837692307,304.81796238639225L507.99991246153843,355.93053531646825L508.1461433076922,345.8563455234884L508.68232307692296,345.70494018901576L509.2185028461538,346.41502137617726L509.70593899999994,325.5521364212045L509.80342623076916,342.1302831823185L509.8521698461538,369.9236490076249L509.9984006923076,341.92283821106054L511.16824746153844,353.2411243265335L511.41196553846146,364.17303189364446L511.4607091538461,351.5156114751652L511.65568361538453,348.56476410952575L512.5818123076922,343.6871855475695L513.0692484615383,381.04178185896546L513.4591973846153,349.9206119884154L514.0441207692307,347.97970702431513L515.9938653846153,373.1301157691272L516.4325579230768,324.8274718197918L516.4813015384615,364.02965562993927L516.7737632307692,339.91049090298833L516.8712504615384,374.46777534484966L517.309943,358.3553966175436L519.0159695384615,347.6814843958084L520.3807907692307,308.082271229138L520.5270216153846,361.6189680966474L520.6732524615384,358.72538930719645L521.111945,334.79138478365905L522.4767662307692,328.1593723297128L523.646613,368.7889282920154L524.134049153846,325.71025995774795L526.814948,316.23710346222015L527.1074096923076,332.81549601121475L527.3023841538461,343.2802427465275L527.4486149999999,347.3293522921485L527.9847947692307,346.6851422569978L528.8621798461537,402.11530702764446L529.1058979230769,371.8856917294599L530.61695,366.1169682416059L530.8606680769229,345.3237231861471L530.9094116923076,392.528268814088L531.0068989230768,388.76279848272253L531.5918223076923,325.349115631798L531.6893095384614,353.6762508045553L532.2742329230769,357.00716816295375L532.761669076923,382.27907805009426L533.395336076923,355.90423601324005L533.6390541538461,336.4926465641378L533.6877977692308,368.30341529846294L534.4189519999999,375.2744511691017L534.7114136923076,352.60502529144384L535.1988498461537,343.37372407046325L536.3686966153845,383.9873857498179L537.197338076923,339.9848007722344L537.587287,359.8498688611127L538.2696976153845,360.9785268089998L539.7807496923076,360.6390937458395L540.1219549999998,348.69314731251205L540.2681858461538,353.4140770652087L540.6581347692306,341.7670086947364L541.4380326153845,349.5648749958395L541.633007076923,315.1697286259053L541.8767251538461,331.22377369620676L541.9742123846153,370.22482109069927L542.0716996153845,342.43137333609934L542.2179304615383,340.69971578771515L543.9239569999999,310.0227665467704L544.2164186923076,348.80743867700846L544.2651623076922,348.6424330798072L544.6063676153846,340.92993710257883L545.0450601538461,325.04835319519134L546.0199324615384,369.25051793185247L546.6048558461538,366.02250376614757L547.3847536923076,363.26697583632136L547.4822409230769,382.2126333930286L547.5309845384614,292.88250290263863L547.6284717692307,366.19324441389705L547.9209334615384,395.3717888051824L548.1159079230769,382.5197043852383L548.3596259999999,367.3378785740255L548.6520876923076,395.57587467540503L548.8958057692306,345.32167495380844L549.2857546923076,358.10026879744197L550.3093706153845,377.0971321626153L550.9917812307691,367.68697929382427L551.5279609999999,324.1502442793422L552.015397153846,336.9816005880192L552.2103716153845,375.38612079620464L552.2591152307691,322.83691770380284L553.6239364615384,372.14311356978084L554.0626289999999,353.1142977801246L554.4525779230768,405.97565148093594L555.2324757692306,382.6939679926102L555.817399153846,331.1559362411508L557.3284512307691,374.23165512085063L557.7671437692306,390.9800509539528L558.108349076923,321.4810698249132L558.4008107692307,348.6587370092228L558.5470416153845,340.3997726440439L558.5957852307691,337.30218991366394L558.8395033076922,401.7276176105857L559.2781958461537,325.37287512692626L559.6681447692307,348.34421045130046L560.009350076923,346.1621875762949L560.0580936923077,337.5492067337045L560.1555809230769,388.8820056048317L560.643017076923,327.524748021907L560.7892479230768,344.4311035329655L560.8867351538461,363.0557621175603L562.1053255384614,322.7676874507566L562.3490436153845,361.40185546875097L562.6415053076922,345.3152025396183L562.8364797692307,323.86553998427047L564.6399935384615,351.85078421506114L564.9324552307692,409.52155130559856L565.0299424615384,342.1467509703212L565.0786860769231,415.92580032348746L565.1274296923076,383.0984529148459L565.4198913846153,350.12977747483785" style="fill: none;" fill="none"></path></g></g></g></g></g><g><g opacity="0.000608728"><span fill="rgb(0, 0, 0)" stroke="none" stroke-width="1px">Alt + Scroll to Zoom</span></g></g></g><g transform="translate(60, 378)" clip-path="url(#clip_1)"><clipPath id="clip_1"><rect width="633" height="22"></rect></clipPath><g><g><line x1="40.74361538461538" y1="0" x2="40.74361538461538" y2="5" style="visibility: inherit;" fill="rgb(0, 0, 0)" stroke="rgb(204, 204, 204)" stroke-width="1px"></line><line x1="89.48723076923075" y1="0" x2="89.48723076923075" y2="5" style="visibility: inherit;" fill="rgb(0, 0, 0)" stroke="rgb(204, 204, 204)" stroke-width="1px"></line><line x1="138.2308461538461" y1="0" x2="138.2308461538461" y2="5" style="visibility: inherit;" fill="rgb(0, 0, 0)" stroke="rgb(204, 204, 204)" stroke-width="1px"></line><line x1="186.9744615384615" y1="0" x2="186.9744615384615" y2="5" style="visibility: inherit;" fill="rgb(0, 0, 0)" stroke="rgb(204, 204, 204)" stroke-width="1px"></line><line x1="235.71807692307686" y1="0" x2="235.71807692307686" y2="5" style="visibility: inherit;" fill="rgb(0, 0, 0)" stroke="rgb(204, 204, 204)" stroke-width="1px"></line><line x1="284.46169230769226" y1="0" x2="284.46169230769226" y2="5" style="visibility: inherit;" fill="rgb(0, 0, 0)" stroke="rgb(204, 204, 204)" stroke-width="1px"></line><line x1="333.20530769230766" y1="0" x2="333.20530769230766" y2="5" style="visibility: inherit;" fill="rgb(0, 0, 0)" stroke="rgb(204, 204, 204)" stroke-width="1px"></line><line x1="381.948923076923" y1="0" x2="381.948923076923" y2="5" style="visibility: inherit;" fill="rgb(0, 0, 0)" stroke="rgb(204, 204, 204)" stroke-width="1px"></line><line x1="430.6925384615384" y1="0" x2="430.6925384615384" y2="5" style="visibility: inherit;" fill="rgb(0, 0, 0)" stroke="rgb(204, 204, 204)" stroke-width="1px"></line><line x1="479.4361538461538" y1="0" x2="479.4361538461538" y2="5" style="visibility: inherit;" fill="rgb(0, 0, 0)" stroke="rgb(204, 204, 204)" stroke-width="1px"></line><line x1="528.1797692307691" y1="0" x2="528.1797692307691" y2="5" style="visibility: inherit;" fill="rgb(0, 0, 0)" stroke="rgb(204, 204, 204)" stroke-width="1px"></line><line x1="576.9233846153845" y1="0" x2="576.9233846153845" y2="5" style="visibility: inherit;" fill="rgb(0, 0, 0)" stroke="rgb(204, 204, 204)" stroke-width="1px"></line><line x1="625.6669999999999" y1="0" x2="625.6669999999999" y2="5" style="visibility: inherit;" fill="rgb(0, 0, 0)" stroke="rgb(204, 204, 204)" stroke-width="1px"></line></g><g transform="translate(0, 8)"><text x="40.74361538461538" y="0" dx="0em" dy="0.95em" style="text-anchor: middle; visibility: inherit; font-family: &quot;Helvetica Neue&quot;, sans-serif; font-size: 12px; font-weight: 200;" fill="rgb(50, 49, 63)" stroke="none" stroke-width="1px">0</text><text x="89.48723076923075" y="0" dx="0em" dy="0.95em" style="text-anchor: middle; visibility: inherit; font-family: &quot;Helvetica Neue&quot;, sans-serif; font-size: 12px; font-weight: 200;" fill="rgb(50, 49, 63)" stroke="none" stroke-width="1px">1k</text><text x="138.2308461538461" y="0" dx="0em" dy="0.95em" style="text-anchor: middle; visibility: inherit; font-family: &quot;Helvetica Neue&quot;, sans-serif; font-size: 12px; font-weight: 200;" fill="rgb(50, 49, 63)" stroke="none" stroke-width="1px">2k</text><text x="186.9744615384615" y="0" dx="0em" dy="0.95em" style="text-anchor: middle; visibility: inherit; font-family: &quot;Helvetica Neue&quot;, sans-serif; font-size: 12px; font-weight: 200;" fill="rgb(50, 49, 63)" stroke="none" stroke-width="1px">3k</text><text x="235.71807692307686" y="0" dx="0em" dy="0.95em" style="text-anchor: middle; visibility: inherit; font-family: &quot;Helvetica Neue&quot;, sans-serif; font-size: 12px; font-weight: 200;" fill="rgb(50, 49, 63)" stroke="none" stroke-width="1px">4k</text><text x="284.46169230769226" y="0" dx="0em" dy="0.95em" style="text-anchor: middle; visibility: inherit; font-family: &quot;Helvetica Neue&quot;, sans-serif; font-size: 12px; font-weight: 200;" fill="rgb(50, 49, 63)" stroke="none" stroke-width="1px">5k</text><text x="333.20530769230766" y="0" dx="0em" dy="0.95em" style="text-anchor: middle; visibility: inherit; font-family: &quot;Helvetica Neue&quot;, sans-serif; font-size: 12px; font-weight: 200;" fill="rgb(50, 49, 63)" stroke="none" stroke-width="1px">6k</text><text x="381.948923076923" y="0" dx="0em" dy="0.95em" style="text-anchor: middle; visibility: inherit; font-family: &quot;Helvetica Neue&quot;, sans-serif; font-size: 12px; font-weight: 200;" fill="rgb(50, 49, 63)" stroke="none" stroke-width="1px">7k</text><text x="430.6925384615384" y="0" dx="0em" dy="0.95em" style="text-anchor: middle; visibility: inherit; font-family: &quot;Helvetica Neue&quot;, sans-serif; font-size: 12px; font-weight: 200;" fill="rgb(50, 49, 63)" stroke="none" stroke-width="1px">8k</text><text x="479.4361538461538" y="0" dx="0em" dy="0.95em" style="text-anchor: middle; visibility: inherit; font-family: &quot;Helvetica Neue&quot;, sans-serif; font-size: 12px; font-weight: 200;" fill="rgb(50, 49, 63)" stroke="none" stroke-width="1px">9k</text><text x="528.1797692307691" y="0" dx="0em" dy="0.95em" style="text-anchor: middle; visibility: inherit; font-family: &quot;Helvetica Neue&quot;, sans-serif; font-size: 12px; font-weight: 200;" fill="rgb(50, 49, 63)" stroke="none" stroke-width="1px">10k</text><text x="576.9233846153845" y="0" dx="0em" dy="0.95em" style="text-anchor: middle; visibility: inherit; font-family: &quot;Helvetica Neue&quot;, sans-serif; font-size: 12px; font-weight: 200;" fill="rgb(50, 49, 63)" stroke="none" stroke-width="1px">11k</text><text x="625.6669999999999" y="0" dx="0em" dy="0.95em" style="text-anchor: middle; visibility: hidden; font-family: &quot;Helvetica Neue&quot;, sans-serif; font-size: 12px; font-weight: 200;" fill="rgb(50, 49, 63)" stroke="none" stroke-width="1px">12k</text></g><line x1="0" y1="0" x2="633.667" y2="0" fill="rgb(0, 0, 0)" stroke="rgb(204, 204, 204)" stroke-width="1px"></line></g></g></g></g></svg>